<?xml version="1.0" encoding="utf-8"?>
<!-- Generator: Adobe Illustrator 25.2.1, SVG Export Plug-In . SVG Version: 6.00 Build 0)  -->
<svg version="1.1" id="Ebene_1" xmlns="http://www.w3.org/2000/svg" xmlns:xlink="http://www.w3.org/1999/xlink" x="0px" y="0px"
	 viewBox="0 0 566.93 566.93" style="enable-background:new 0 0 566.93 566.93;" xml:space="preserve">
<style type="text/css">
	.st0{fill:#F08AA0;}
	.st1{fill:#3ABBCF;}
	.st2{fill:#ECBA3D;}
</style>
<g>
	<path class="st0" d="M243.42,334.09c5.58,6.52,12,9.79,19.26,9.79c4.84,0,9.29-1.25,13.34-3.74c4.05-2.49,6.92-5.44,8.6-8.83v4.62
		c0,1.59,0.92,3.08,2.76,4.46c1.84,1.38,3.97,2.07,6.39,2.07c2.84,0,5.23-0.66,7.18-1.97c1.95-1.31,2.92-2.81,2.92-4.49V230.23
		c0-1.89-0.95-3.42-2.84-4.57c-1.89-1.15-4.32-1.73-7.26-1.73c-2.95,0-5.39,0.58-7.34,1.74c-1.95,1.16-2.92,2.68-2.92,4.57v48.41
		c-1.89-3.4-4.6-6.26-8.13-8.6c-3.53-2.34-7.6-3.5-12.23-3.5c-7.68,0-14.28,3.16-19.81,9.47c-5.52,6.31-8.29,13.84-8.29,22.57v12.94
		C235.05,320.05,237.84,327.57,243.42,334.09L243.42,334.09z M255.41,298.63c0-3.65,1.37-6.92,4.1-9.79c2.74-2.87,6-4.31,9.79-4.31
		c3.68,0,6.97,1.31,9.86,3.92c2.89,2.61,4.34,6,4.34,10.18v15.66c0,1.99-1.48,4.41-4.42,7.28c-2.95,2.87-6.26,4.31-9.94,4.31
		c-3.68,0-6.89-1.49-9.63-4.46c-2.74-2.97-4.1-6.29-4.1-9.95V298.63L255.41,298.63z M324.22,340.49c1.89,1.32,4.26,1.97,7.1,1.97
		c2.73,0,5.15-0.68,7.26-2.04c2.1-1.36,3.16-2.83,3.16-4.41v-28.17c0-6.92,1.82-12.54,5.45-16.84c3.63-4.3,7.86-6.45,12.7-6.45h4.89
		c1.89,0,3.6-0.9,5.13-2.71c1.52-1.81,2.29-3.93,2.29-6.37c0-2.34-0.76-4.4-2.29-6.21c-1.53-1.81-3.24-2.71-5.13-2.71h-4.89
		c-4.1,0-7.95,1.38-11.52,4.14c-3.58,2.76-6.21,6-7.89,9.71v-6.53c0-1.91-0.87-3.45-2.6-4.62c-1.74-1.17-3.92-1.75-6.55-1.75
		c-2.95,0-5.34,0.58-7.18,1.74c-1.84,1.16-2.76,2.68-2.76,4.58v62.18C321.38,337.67,322.33,339.17,324.22,340.49L324.22,340.49z
		 M387.91,334.96c7.1,5.95,16.28,8.92,27.54,8.92c7.89,0,14.49-1.45,19.81-4.34c5.31-2.89,7.97-5.81,7.97-8.76
		c0-1.89-0.74-3.87-2.21-5.92c-1.47-2.05-3.31-3.08-5.52-3.08c-1.16,0-3.68,1-7.58,3c-3.89,2-7.84,3-11.84,3
		c-5.58,0-10.05-1.39-13.41-4.18c-3.37-2.79-5.05-6.44-5.05-10.97v-2.37h32.04c2.21,0,4-0.1,5.37-0.31c1.37-0.21,2.87-0.73,4.5-1.56
		c1.63-0.83,2.84-2.27,3.63-4.3c0.79-2.03,1.18-4.61,1.18-7.74c0-8.56-3.18-15.67-9.55-21.32c-6.37-5.65-14.02-8.48-22.96-8.48
		c-9.58,0-17.73,3.1-24.46,9.31c-6.73,6.21-10.1,13.63-10.1,22.25v13.42C377.26,321.21,380.81,329.02,387.91,334.96L387.91,334.96z
		 M397.62,294.14c0-3.44,1.37-6.21,4.1-8.33c2.73-2.11,5.94-3.17,9.63-3.17c3.89,0,7.18,1.08,9.86,3.24
		c2.68,2.16,4.03,4.96,4.03,8.4c0,1.57-0.34,2.63-1.03,3.17c-0.69,0.54-1.87,0.81-3.55,0.81h-23.04V294.14L397.62,294.14z
		 M461.1,248.05c2.23,1.81,4.99,2.71,8.26,2.71c2.94,0,5.44-0.9,7.52-2.71c2.08-1.81,3.11-3.9,3.11-6.28c0-2.48-1.04-4.59-3.11-6.36
		c-2.08-1.76-4.59-2.64-7.52-2.64c-3.28,0-6.03,0.88-8.26,2.64c-2.24,1.76-3.35,3.88-3.35,6.36
		C457.75,244.15,458.87,246.24,461.1,248.05L461.1,248.05z M462.45,340.49c1.87,1.32,4.17,1.97,6.9,1.97c2.63,0,4.93-0.68,6.9-2.05
		c1.97-1.37,2.96-2.84,2.96-4.42V273.8c0-1.89-0.94-3.42-2.81-4.58c-1.87-1.16-4.23-1.74-7.06-1.74c-2.83,0-5.16,0.58-6.98,1.74
		c-1.82,1.16-2.73,2.68-2.73,4.58v62.18C459.64,337.67,460.58,339.17,462.45,340.49L462.45,340.49z"/>
	<path class="st1" d="M89.51,339.15c2.38,2.26,5.2,3.38,8.45,3.38c3.25,0,6.06-1.13,8.43-3.38c2.36-2.25,3.55-4.88,3.55-7.87v-13.36
		c0-0.59-0.33-1.11-1-1.55c-0.67-0.44-1.52-0.67-2.55-0.67c-0.96,0-1.8,0.22-2.52,0.66c-0.72,0.44-1.08,0.96-1.08,1.55v13.32
		c0,1.29-0.47,2.44-1.41,3.46c-0.94,1.01-2.08,1.52-3.41,1.52c-1.33,0-2.48-0.51-3.44-1.52c-0.96-1.01-1.44-2.17-1.44-3.46v-13.27
		c0-0.55-0.36-1.07-1.08-1.55c-0.72-0.48-1.54-0.72-2.47-0.72c-0.96,0-1.8,0.24-2.52,0.72c-0.72,0.48-1.08,1-1.08,1.55v13.3
		C85.94,334.27,87.13,336.89,89.51,339.15L89.51,339.15z M116.82,341.34c0.68,0.46,1.52,0.69,2.52,0.69c0.96,0,1.8-0.24,2.52-0.72
		c0.72-0.48,1.08-0.99,1.08-1.55v-13.1c0-1.47,0.45-2.67,1.36-3.59c0.91-0.92,1.97-1.38,3.19-1.38c1.29,0,2.42,0.51,3.38,1.52
		c0.96,1.01,1.44,2.17,1.44,3.45v13.1c0,0.7,0.36,1.25,1.08,1.66c0.72,0.41,1.54,0.61,2.47,0.61c0.96,0,1.8-0.2,2.52-0.61
		c0.72-0.41,1.08-0.96,1.08-1.66v-13.14c0-3.07-0.95-5.71-2.85-7.93c-1.9-2.22-4.13-3.33-6.68-3.33c-1.74,0-3.26,0.41-4.57,1.23
		c-1.31,0.82-2.26,1.83-2.85,3.02v-1.68c0-0.67-0.3-1.21-0.91-1.62c-0.61-0.41-1.36-0.62-2.25-0.62c-1.07,0-1.93,0.2-2.58,0.61
		c-0.65,0.41-0.97,0.94-0.97,1.61v21.84C115.8,340.35,116.14,340.87,116.82,341.34L116.82,341.34z M155.52,342.03h2.16
		c0.96,0,1.71-0.31,2.25-0.93c0.54-0.62,0.8-1.37,0.8-2.26c0-0.85-0.27-1.59-0.8-2.2c-0.54-0.62-1.28-0.93-2.25-0.93h-2.16
		c-1.15,0-1.95-0.21-2.41-0.63c-0.46-0.42-0.69-1.14-0.69-2.17v-11.56h6.54c0.55,0,1-0.28,1.33-0.84c0.33-0.56,0.5-1.22,0.5-1.99
		c0-0.76-0.17-1.42-0.5-1.98c-0.33-0.56-0.78-0.84-1.33-0.84h-6.54v-9.18c0-0.6-0.36-1.11-1.08-1.52c-0.72-0.41-1.56-0.61-2.52-0.61
		c-0.89,0-1.7,0.21-2.44,0.63c-0.74,0.42-1.11,0.94-1.11,1.56v26.57C145.27,339.07,148.68,342.03,155.52,342.03L155.52,342.03
		L155.52,342.03z M167.56,339.4c2.49,2.09,5.72,3.13,9.67,3.13c2.77,0,5.09-0.51,6.96-1.52c1.87-1.02,2.8-2.04,2.8-3.08
		c0-0.67-0.26-1.36-0.78-2.08c-0.52-0.72-1.16-1.08-1.94-1.08c-0.41,0-1.29,0.35-2.66,1.05c-1.37,0.7-2.75,1.05-4.16,1.05
		c-1.96,0-3.53-0.49-4.71-1.47c-1.18-0.98-1.77-2.26-1.77-3.85v-0.83h11.25c0.78,0,1.4-0.04,1.88-0.11
		c0.48-0.07,1.01-0.26,1.58-0.55c0.57-0.29,1-0.8,1.27-1.51c0.28-0.71,0.42-1.62,0.42-2.72c0-3.01-1.12-5.5-3.35-7.49
		c-2.24-1.99-4.93-2.98-8.07-2.98c-3.36,0-6.23,1.09-8.59,3.27c-2.37,2.18-3.55,4.79-3.55,7.82v4.71
		C163.81,334.56,165.06,337.31,167.56,339.4L167.56,339.4z M170.97,325.06c0-1.21,0.48-2.18,1.44-2.93
		c0.96-0.74,2.09-1.11,3.38-1.11c1.37,0,2.52,0.38,3.46,1.14c0.94,0.76,1.41,1.74,1.41,2.95c0,0.55-0.12,0.92-0.36,1.11
		c-0.24,0.19-0.66,0.29-1.25,0.29h-8.09V325.06L170.97,325.06z M193.17,341.34c0.67,0.46,1.5,0.69,2.49,0.69
		c0.96,0,1.81-0.24,2.55-0.72c0.74-0.48,1.11-0.99,1.11-1.55v-9.9c0-2.43,0.64-4.4,1.91-5.92c1.28-1.51,2.76-2.27,4.46-2.27h1.72
		c0.66,0,1.26-0.32,1.8-0.95c0.54-0.63,0.8-1.38,0.8-2.24c0-0.82-0.27-1.55-0.8-2.18c-0.54-0.63-1.14-0.95-1.8-0.95h-1.72
		c-1.44,0-2.79,0.49-4.05,1.45c-1.26,0.97-2.18,2.11-2.77,3.41v-2.29c0-0.67-0.3-1.21-0.92-1.62c-0.61-0.41-1.38-0.62-2.3-0.62
		c-1.04,0-1.88,0.2-2.52,0.61c-0.65,0.41-0.97,0.94-0.97,1.61v21.84C192.17,340.35,192.51,340.87,193.17,341.34L193.17,341.34z"/>
	<path class="st2" d="M86,291.79c0.67,0.46,1.5,0.69,2.49,0.69c0.96,0,1.81-0.24,2.55-0.72c0.74-0.48,1.11-1,1.11-1.55v-6.1
		l3.44-3.16l7.48,11.03c0.44,0.63,1.03,0.94,1.77,0.94c0.89,0,1.78-0.39,2.69-1.16c0.91-0.78,1.36-1.57,1.36-2.38
		c0-0.41-0.13-0.79-0.39-1.16l-8.15-11.64l6.54-5.93c0.41-0.41,0.61-0.85,0.61-1.33c0-0.81-0.39-1.59-1.16-2.33
		c-0.78-0.74-1.55-1.11-2.33-1.11c-0.52,0-1,0.19-1.44,0.55l-10.42,9.81v-23.23c0-0.67-0.35-1.2-1.05-1.61
		c-0.7-0.41-1.57-0.61-2.61-0.61c-1.04,0-1.88,0.2-2.52,0.61c-0.65,0.41-0.97,0.94-0.97,1.61v37.2C85,290.8,85.33,291.33,86,291.79
		L86,291.79z M113.44,259.32c0.78,0.64,1.75,0.95,2.9,0.95c1.03,0,1.91-0.32,2.64-0.95c0.73-0.63,1.09-1.37,1.09-2.21
		c0-0.87-0.36-1.61-1.09-2.23c-0.73-0.62-1.61-0.93-2.64-0.93c-1.15,0-2.12,0.31-2.9,0.93c-0.79,0.62-1.18,1.36-1.18,2.23
		C112.27,257.95,112.66,258.69,113.44,259.32L113.44,259.32z M113.92,291.79c0.66,0.46,1.46,0.69,2.42,0.69
		c0.92,0,1.73-0.24,2.42-0.72c0.69-0.48,1.04-1,1.04-1.55v-21.84c0-0.67-0.33-1.2-0.99-1.61c-0.66-0.41-1.48-0.61-2.48-0.61
		c-0.99,0-1.81,0.2-2.45,0.61c-0.64,0.41-0.96,0.94-0.96,1.61v21.84C112.93,290.8,113.26,291.33,113.92,291.79L113.92,291.79z
		 M126.81,291.79c0.68,0.46,1.52,0.69,2.52,0.69c0.96,0,1.8-0.24,2.52-0.72c0.72-0.48,1.08-1,1.08-1.55v-13.1
		c0-1.47,0.45-2.67,1.36-3.59c0.91-0.92,1.97-1.38,3.19-1.38c1.29,0,2.42,0.51,3.38,1.52c0.96,1.01,1.44,2.17,1.44,3.46v13.1
		c0,0.7,0.36,1.25,1.08,1.66c0.72,0.41,1.54,0.61,2.47,0.61c0.96,0,1.8-0.2,2.52-0.61c0.72-0.41,1.08-0.96,1.08-1.66v-13.14
		c0-3.07-0.95-5.71-2.86-7.93c-1.9-2.22-4.13-3.33-6.68-3.33c-1.74,0-3.26,0.41-4.57,1.23c-1.31,0.82-2.26,1.83-2.86,3.02v-1.68
		c0-0.67-0.3-1.21-0.91-1.62c-0.61-0.41-1.36-0.62-2.25-0.62c-1.07,0-1.93,0.2-2.58,0.61c-0.65,0.41-0.97,0.94-0.97,1.61v21.84
		C125.78,290.8,126.12,291.33,126.81,291.79L126.81,291.79z M157.21,289.55c1.96,2.29,4.21,3.44,6.76,3.44
		c1.7,0,3.26-0.44,4.68-1.31c1.42-0.88,2.43-1.91,3.02-3.1v1.62c0,0.56,0.32,1.08,0.97,1.57c0.65,0.49,1.39,0.73,2.25,0.73
		c1,0,1.84-0.23,2.52-0.69c0.68-0.46,1.03-0.99,1.03-1.58v-37.15c0-0.66-0.33-1.2-1-1.61c-0.67-0.41-1.52-0.61-2.55-0.61
		c-1.04,0-1.89,0.2-2.58,0.61c-0.68,0.41-1.03,0.94-1.03,1.61v17c-0.67-1.19-1.62-2.2-2.85-3.02c-1.24-0.82-2.67-1.23-4.3-1.23
		c-2.7,0-5.02,1.11-6.96,3.33c-1.94,2.22-2.91,4.86-2.91,7.93v4.55C154.27,284.61,155.25,287.26,157.21,289.55L157.21,289.55z
		 M161.42,277.09c0-1.28,0.48-2.43,1.44-3.44c0.96-1.01,2.11-1.51,3.44-1.51c1.29,0,2.45,0.46,3.46,1.38
		c1.02,0.92,1.52,2.11,1.52,3.58v5.5c0,0.7-0.52,1.55-1.55,2.56c-1.04,1.01-2.2,1.51-3.49,1.51c-1.29,0-2.42-0.52-3.38-1.57
		c-0.96-1.04-1.44-2.21-1.44-3.49V277.09L161.42,277.09z M187.22,289.85c2.49,2.09,5.72,3.13,9.67,3.13c2.77,0,5.09-0.51,6.96-1.52
		c1.87-1.02,2.8-2.04,2.8-3.08c0-0.67-0.26-1.36-0.78-2.08c-0.52-0.72-1.16-1.08-1.94-1.08c-0.41,0-1.29,0.35-2.66,1.05
		c-1.37,0.7-2.75,1.05-4.16,1.05c-1.96,0-3.53-0.49-4.71-1.47c-1.18-0.98-1.77-2.26-1.77-3.85v-0.83h11.25
		c0.78,0,1.4-0.04,1.88-0.11c0.48-0.07,1.01-0.26,1.58-0.55c0.57-0.29,1-0.8,1.27-1.51c0.28-0.71,0.42-1.62,0.42-2.72
		c0-3.01-1.12-5.5-3.35-7.49c-2.24-1.99-4.92-2.98-8.07-2.98c-3.36,0-6.23,1.09-8.59,3.27c-2.37,2.18-3.55,4.79-3.55,7.82v4.71
		C183.47,285.02,184.72,287.76,187.22,289.85L187.22,289.85z M190.63,275.51c0-1.21,0.48-2.18,1.44-2.93
		c0.96-0.74,2.09-1.11,3.38-1.11c1.37,0,2.52,0.38,3.46,1.14c0.94,0.76,1.41,1.74,1.41,2.95c0,0.55-0.12,0.92-0.36,1.11
		c-0.24,0.19-0.66,0.28-1.25,0.28h-8.09V275.51L190.63,275.51z M212.74,291.79c0.66,0.46,1.5,0.69,2.49,0.69
		c0.96,0,1.81-0.24,2.55-0.72c0.74-0.48,1.11-1,1.11-1.55v-9.9c0-2.43,0.64-4.4,1.91-5.92c1.28-1.51,2.76-2.27,4.46-2.27h1.72
		c0.67,0,1.27-0.32,1.8-0.95c0.54-0.63,0.8-1.38,0.8-2.24c0-0.82-0.27-1.55-0.8-2.18c-0.54-0.63-1.14-0.95-1.8-0.95h-1.72
		c-1.44,0-2.79,0.49-4.05,1.45c-1.26,0.97-2.18,2.11-2.77,3.41v-2.29c0-0.67-0.3-1.21-0.91-1.62c-0.61-0.41-1.38-0.62-2.3-0.62
		c-1.04,0-1.88,0.2-2.52,0.61c-0.65,0.41-0.97,0.94-0.97,1.61v21.84C211.74,290.8,212.07,291.33,212.74,291.79L212.74,291.79z"/>
</g>
</svg>
