<svg xmlns="http://www.w3.org/2000/svg" xmlns:xlink="http://www.w3.org/1999/xlink" width="100" zoomAndPan="magnify" viewBox="0 0 75 74.999997" height="100" preserveAspectRatio="xMidYMid meet" version="1.0"><defs><g/><clipPath id="6b0c20b94b"><path d="M 1.132812 1.132812 L 73.867188 1.132812 L 73.867188 73.867188 L 1.132812 73.867188 Z M 1.132812 1.132812 " clip-rule="nonzero"/></clipPath><clipPath id="61320ba985"><path d="M 37.5 1.132812 C 17.414062 1.132812 1.132812 17.414062 1.132812 37.5 C 1.132812 57.585938 17.414062 73.867188 37.5 73.867188 C 57.585938 73.867188 73.867188 57.585938 73.867188 37.5 C 73.867188 17.414062 57.585938 1.132812 37.5 1.132812 Z M 37.5 1.132812 " clip-rule="nonzero"/></clipPath><clipPath id="9d08b80f32"><path d="M 1.132812 1.132812 L 73.859375 1.132812 L 73.859375 73.859375 L 1.132812 73.859375 Z M 1.132812 1.132812 " clip-rule="nonzero"/></clipPath><clipPath id="e00d3095a6"><path d="M 37.496094 1.132812 C 17.414062 1.132812 1.132812 17.414062 1.132812 37.496094 C 1.132812 57.578125 17.414062 73.859375 37.496094 73.859375 C 57.578125 73.859375 73.859375 57.578125 73.859375 37.496094 C 73.859375 17.414062 57.578125 1.132812 37.496094 1.132812 Z M 37.496094 1.132812 " clip-rule="nonzero"/></clipPath></defs><g clip-path="url(#6b0c20b94b)"><g clip-path="url(#61320ba985)"><path fill="#1da5a5" d="M 1.132812 1.132812 L 73.867188 1.132812 L 73.867188 73.867188 L 1.132812 73.867188 Z M 1.132812 1.132812 " fill-opacity="1" fill-rule="nonzero"/></g></g><g clip-path="url(#9d08b80f32)"><g clip-path="url(#e00d3095a6)"><path stroke-linecap="butt" transform="matrix(0.75, 0, 0, 0.75, 1.133722, 1.133729)" fill="none" stroke-linejoin="miter" d="M 48.483166 -0.00122252 C 21.707122 -0.00122252 -0.00121318 21.707113 -0.00121318 48.483156 C -0.00121318 75.2592 21.707122 96.967535 48.483166 96.967535 C 75.25921 96.967535 96.967545 75.2592 96.967545 48.483156 C 96.967545 21.707113 75.25921 -0.00122252 48.483166 -0.00122252 Z M 48.483166 -0.00122252 " stroke="#0f3c91" stroke-width="2" stroke-opacity="1" stroke-miterlimit="4"/></g></g><g fill="#ffffff" fill-opacity="1"><g transform="translate(17.084634, 54.204977)"><g><path d="M 27.875 -17.265625 C 29.925781 -16.921875 31.707031 -16.148438 33.21875 -14.953125 C 34.726562 -13.765625 35.910156 -12.242188 36.765625 -10.390625 C 37.617188 -8.535156 38.046875 -6.488281 38.046875 -4.25 C 38.046875 -1.21875 37.265625 1.414062 35.703125 3.65625 C 34.140625 5.90625 31.929688 7.648438 29.078125 8.890625 C 26.234375 10.128906 22.882812 10.75 19.03125 10.75 C 15.320312 10.75 12.039062 10.148438 9.1875 8.953125 C 6.332031 7.765625 3.953125 6.023438 2.046875 3.734375 L 7.609375 -3.21875 C 8.878906 -1.65625 10.40625 -0.425781 12.1875 0.46875 C 13.96875 1.375 16.148438 1.828125 18.734375 1.828125 C 21.710938 1.828125 23.976562 1.226562 25.53125 0.03125 C 27.09375 -1.15625 27.875 -2.945312 27.875 -5.34375 C 27.875 -7.875 26.972656 -9.820312 25.171875 -11.1875 C 23.367188 -12.5625 20.632812 -13.25 16.96875 -13.25 L 14.921875 -13.25 L 14.921875 -20.5625 L 17.203125 -20.5625 C 20.171875 -20.5625 22.492188 -21.242188 24.171875 -22.609375 C 25.859375 -23.972656 26.703125 -25.679688 26.703125 -27.734375 C 26.703125 -29.046875 26.382812 -30.140625 25.75 -31.015625 C 25.125 -31.898438 24.257812 -32.5625 23.15625 -33 C 22.0625 -33.4375 20.78125 -33.65625 19.3125 -33.65625 C 17.125 -33.65625 15.125 -33.140625 13.3125 -32.109375 C 11.507812 -31.085938 10.046875 -29.65625 8.921875 -27.8125 L 2.78125 -34.6875 C 3.800781 -36.195312 5.203125 -37.5 6.984375 -38.59375 C 8.765625 -39.695312 10.8125 -40.5625 13.125 -41.1875 C 15.445312 -41.820312 17.878906 -42.140625 20.421875 -42.140625 C 23.734375 -42.140625 26.644531 -41.601562 29.15625 -40.53125 C 31.664062 -39.457031 33.628906 -37.945312 35.046875 -36 C 36.460938 -34.050781 37.171875 -31.785156 37.171875 -29.203125 C 37.171875 -27.296875 36.78125 -25.488281 36 -23.78125 C 35.21875 -22.070312 34.128906 -20.644531 32.734375 -19.5 C 31.347656 -18.351562 29.726562 -17.609375 27.875 -17.265625 Z M 27.875 -17.265625 "/></g></g></g></svg>