<svg xmlns="http://www.w3.org/2000/svg" xmlns:xlink="http://www.w3.org/1999/xlink" width="100" zoomAndPan="magnify" viewBox="0 0 75 74.999997" height="100" preserveAspectRatio="xMidYMid meet" version="1.0"><defs><g/><clipPath id="3871ab68bd"><path d="M 1.132812 1.132812 L 73.867188 1.132812 L 73.867188 73.867188 L 1.132812 73.867188 Z M 1.132812 1.132812 " clip-rule="nonzero"/></clipPath><clipPath id="91a896d425"><path d="M 37.5 1.132812 C 17.414062 1.132812 1.132812 17.414062 1.132812 37.5 C 1.132812 57.585938 17.414062 73.867188 37.5 73.867188 C 57.585938 73.867188 73.867188 57.585938 73.867188 37.5 C 73.867188 17.414062 57.585938 1.132812 37.5 1.132812 Z M 37.5 1.132812 " clip-rule="nonzero"/></clipPath><clipPath id="1eab0908b0"><path d="M 1.132812 1.132812 L 73.859375 1.132812 L 73.859375 73.859375 L 1.132812 73.859375 Z M 1.132812 1.132812 " clip-rule="nonzero"/></clipPath><clipPath id="b7e1eef752"><path d="M 37.496094 1.132812 C 17.414062 1.132812 1.132812 17.414062 1.132812 37.496094 C 1.132812 57.578125 17.414062 73.859375 37.496094 73.859375 C 57.578125 73.859375 73.859375 57.578125 73.859375 37.496094 C 73.859375 17.414062 57.578125 1.132812 37.496094 1.132812 Z M 37.496094 1.132812 " clip-rule="nonzero"/></clipPath></defs><g clip-path="url(#3871ab68bd)"><g clip-path="url(#91a896d425)"><path fill="#1da5a5" d="M 1.132812 1.132812 L 73.867188 1.132812 L 73.867188 73.867188 L 1.132812 73.867188 Z M 1.132812 1.132812 " fill-opacity="1" fill-rule="nonzero"/></g></g><g clip-path="url(#1eab0908b0)"><g clip-path="url(#b7e1eef752)"><path stroke-linecap="butt" transform="matrix(0.75, 0, 0, 0.75, 1.133722, 1.133722)" fill="none" stroke-linejoin="miter" d="M 48.483166 -0.00121272 C 21.707122 -0.00121272 -0.00121318 21.707122 -0.00121318 48.483166 C -0.00121318 75.25921 21.707122 96.967545 48.483166 96.967545 C 75.25921 96.967545 96.967545 75.25921 96.967545 48.483166 C 96.967545 21.707122 75.25921 -0.00121272 48.483166 -0.00121272 Z M 48.483166 -0.00121272 " stroke="#0f3c91" stroke-width="2" stroke-opacity="1" stroke-miterlimit="4"/></g></g><g fill="#ffffff" fill-opacity="1"><g transform="translate(19.42578, 56.900684)"><g><path d="M 34.390625 -8.859375 L 34.390625 0 L 4.6875 0 L 4.6875 -8.859375 L 15.078125 -8.859375 L 15.078125 -31.03125 C 14.640625 -30.4375 13.957031 -29.832031 13.03125 -29.21875 C 12.101562 -28.613281 11.050781 -28.039062 9.875 -27.5 C 8.707031 -26.96875 7.535156 -26.53125 6.359375 -26.1875 C 5.191406 -25.851562 4.144531 -25.6875 3.21875 -25.6875 L 3.21875 -34.828125 C 4.09375 -34.828125 5.148438 -35.109375 6.390625 -35.671875 C 7.640625 -36.234375 8.882812 -36.90625 10.125 -37.6875 C 11.375 -38.46875 12.445312 -39.234375 13.34375 -39.984375 C 14.25 -40.742188 14.828125 -41.34375 15.078125 -41.78125 L 25.09375 -41.78125 L 25.09375 -8.859375 Z M 34.390625 -8.859375 "/></g></g></g></svg>