<svg xmlns="http://www.w3.org/2000/svg" xmlns:xlink="http://www.w3.org/1999/xlink" width="100" zoomAndPan="magnify" viewBox="0 0 75 74.999997" height="100" preserveAspectRatio="xMidYMid meet" version="1.0"><defs><g/><clipPath id="25e3092906"><path d="M 1.132812 1.132812 L 73.867188 1.132812 L 73.867188 73.867188 L 1.132812 73.867188 Z M 1.132812 1.132812 " clip-rule="nonzero"/></clipPath><clipPath id="6736b382f3"><path d="M 37.5 1.132812 C 17.414062 1.132812 1.132812 17.414062 1.132812 37.5 C 1.132812 57.585938 17.414062 73.867188 37.5 73.867188 C 57.585938 73.867188 73.867188 57.585938 73.867188 37.5 C 73.867188 17.414062 57.585938 1.132812 37.5 1.132812 Z M 37.5 1.132812 " clip-rule="nonzero"/></clipPath><clipPath id="20f3276a8a"><path d="M 1.132812 1.132812 L 73.859375 1.132812 L 73.859375 73.859375 L 1.132812 73.859375 Z M 1.132812 1.132812 " clip-rule="nonzero"/></clipPath><clipPath id="b220aea88e"><path d="M 37.496094 1.132812 C 17.414062 1.132812 1.132812 17.414062 1.132812 37.496094 C 1.132812 57.578125 17.414062 73.859375 37.496094 73.859375 C 57.578125 73.859375 73.859375 57.578125 73.859375 37.496094 C 73.859375 17.414062 57.578125 1.132812 37.496094 1.132812 Z M 37.496094 1.132812 " clip-rule="nonzero"/></clipPath></defs><g clip-path="url(#25e3092906)"><g clip-path="url(#6736b382f3)"><path fill="#1da5a5" d="M 1.132812 1.132812 L 73.867188 1.132812 L 73.867188 73.867188 L 1.132812 73.867188 Z M 1.132812 1.132812 " fill-opacity="1" fill-rule="nonzero"/></g></g><g clip-path="url(#20f3276a8a)"><g clip-path="url(#b220aea88e)"><path stroke-linecap="butt" transform="matrix(0.75, 0, 0, 0.75, 1.133722, 1.133715)" fill="none" stroke-linejoin="miter" d="M 48.483166 -0.00120296 C 21.707122 -0.00120296 -0.00121318 21.707132 -0.00121318 48.483176 C -0.00121318 75.25922 21.707122 96.967555 48.483166 96.967555 C 75.25921 96.967555 96.967545 75.25922 96.967545 48.483176 C 96.967545 21.707132 75.25921 -0.00120296 48.483166 -0.00120296 Z M 48.483166 -0.00120296 " stroke="#0f3c91" stroke-width="2" stroke-opacity="1" stroke-miterlimit="4"/></g></g><g fill="#ffffff" fill-opacity="1"><g transform="translate(16.865017, 58.042193)"><g><path d="M 2.78125 0 C 2.78125 -2.195312 2.953125 -4.171875 3.296875 -5.921875 C 3.640625 -7.679688 4.234375 -9.316406 5.078125 -10.828125 C 5.929688 -12.335938 7.101562 -13.765625 8.59375 -15.109375 C 10.082031 -16.453125 11.972656 -17.757812 14.265625 -19.03125 C 16.265625 -20.101562 18.019531 -21.039062 19.53125 -21.84375 C 21.050781 -22.644531 22.332031 -23.382812 23.375 -24.0625 C 24.425781 -24.75 25.21875 -25.445312 25.75 -26.15625 C 26.289062 -26.863281 26.5625 -27.679688 26.5625 -28.609375 C 26.5625 -29.585938 26.289062 -30.476562 25.75 -31.28125 C 25.21875 -32.082031 24.460938 -32.726562 23.484375 -33.21875 C 22.515625 -33.707031 21.296875 -33.953125 19.828125 -33.953125 C 18.660156 -33.953125 17.578125 -33.804688 16.578125 -33.515625 C 15.578125 -33.222656 14.648438 -32.804688 13.796875 -32.265625 C 12.941406 -31.734375 12.144531 -31.132812 11.40625 -30.46875 C 10.675781 -29.8125 10.019531 -29.117188 9.4375 -28.390625 L 3.21875 -35.5625 C 3.90625 -36.238281 4.820312 -36.976562 5.96875 -37.78125 C 7.113281 -38.59375 8.476562 -39.351562 10.0625 -40.0625 C 11.644531 -40.769531 13.398438 -41.351562 15.328125 -41.8125 C 17.253906 -42.28125 19.316406 -42.515625 21.515625 -42.515625 C 24.828125 -42.515625 27.65625 -41.988281 30 -40.9375 C 32.34375 -39.882812 34.132812 -38.429688 35.375 -36.578125 C 36.625 -34.734375 37.25 -32.566406 37.25 -30.078125 C 37.25 -28.367188 36.929688 -26.851562 36.296875 -25.53125 C 35.660156 -24.21875 34.851562 -23.0625 33.875 -22.0625 C 32.90625 -21.0625 31.84375 -20.171875 30.6875 -19.390625 C 29.539062 -18.609375 28.429688 -17.925781 27.359375 -17.34375 C 25.847656 -16.5625 24.484375 -15.84375 23.265625 -15.1875 C 22.046875 -14.53125 20.972656 -13.867188 20.046875 -13.203125 C 19.117188 -12.546875 18.300781 -11.875 17.59375 -11.1875 C 16.882812 -10.507812 16.265625 -9.734375 15.734375 -8.859375 L 38.046875 -8.859375 L 38.046875 0 Z M 2.78125 0 "/></g></g></g></svg>