<svg width="288" height="40" viewBox="0 0 288 40" fill="none" xmlns="http://www.w3.org/2000/svg">
<g clip-path="url(#clip0_5237_166)">
<rect x="-0.0126953" width="40.0146" height="40" fill="white"/>
<path d="M26.7859 31.7582C26.8031 31.7502 27.1143 32.1638 27.4237 32.5327C27.7185 32.8826 28.0142 33.187 27.9862 33.2291C27.8949 33.3642 27.7212 33.0791 27.4518 32.7774C27.2737 32.5757 26.6657 31.7977 26.7859 31.7582Z" fill="#00843D"/>
<path d="M29.7734 30.7725C29.8357 30.726 30.141 30.9978 30.27 31.1469C30.5578 31.482 31.2912 32.0784 31.4746 32.2854C31.5035 32.3178 31.3772 32.3266 31.3509 32.3283C31.2771 32.3344 30.8745 31.9205 30.5744 31.6451C30.2884 31.382 29.7427 30.7944 29.7734 30.7725Z" fill="#00843D"/>
<path d="M15.4976 23.7025C15.5581 23.7025 15.5774 23.7701 15.5914 23.8253C15.6029 23.8652 15.7854 24.7886 16.2442 26.1469C15.4274 27.9264 14.4122 29.485 13.1471 30.5936C12.6084 31.0654 12.1091 31.4337 11.6309 31.7354C11.9187 31.3794 12.1889 31.0014 12.4328 30.6041C14.4561 27.3081 15.258 24.4708 15.4028 23.8682C15.4168 23.8068 15.4467 23.7025 15.4976 23.7025Z" fill="#00843D"/>
<path d="M26.6788 30.6909C26.7534 30.6909 26.9491 30.961 27.0755 31.1505C27.2456 31.4056 27.4517 31.6065 27.386 31.6521C27.3106 31.7047 27.2377 31.6416 26.9412 31.2119C26.8517 31.0821 26.6131 30.6909 26.6788 30.6909Z" fill="#00843D"/>
<path fill-rule="evenodd" clip-rule="evenodd" d="M40.0273 0V40H0.0126953V0H40.0273ZM20.0072 8.28905C19.7405 8.29962 19.7133 8.88903 19.6993 9.03549C19.5668 10.3871 19.272 17.1141 17.4357 22.9956C16.6724 20.7635 16.2845 18.7155 16.052 17.1658C15.9616 16.5659 15.866 15.9073 15.6397 15.9072C15.4581 15.9072 15.3739 16.4291 15.3581 16.5203C15.2598 17.0713 14.9948 23.7982 11.0931 29.1657C10.8238 29.5358 10.5482 29.9015 10.2613 30.2585C10.0165 30.5628 9.76472 30.8619 9.50064 31.1496C9.27077 31.4013 9.03127 31.6451 8.78211 31.8784C8.55399 32.0915 8.31797 32.2959 8.07318 32.4898C7.83541 32.6783 7.59057 32.8572 7.34052 33.0291C7.08171 33.2063 6.81765 33.3764 6.55182 33.5413C6.26141 33.722 5.96742 33.8974 5.6735 34.072C5.24448 34.3272 4.83212 34.5105 4.58646 34.9745C4.48996 35.156 4.46543 35.3937 4.68388 35.4937C4.81197 35.5524 4.97076 35.5446 5.10937 35.5446C6.88519 35.5516 7.15017 35.5639 8.01526 35.5665C8.11619 35.5674 9.1436 35.5673 9.23134 35.5673C9.67704 35.5673 10.2122 35.5656 10.6333 35.4112C11.0764 35.249 11.4344 34.9683 11.8275 34.7183C12.1144 34.5359 12.3977 34.3482 12.6741 34.1474C13.2505 33.7281 13.7981 33.2703 14.3026 32.766C15.1115 31.9582 15.8038 31.0443 16.4188 30.0839C16.7197 29.6138 16.9944 29.1367 17.2453 28.6605C17.7875 29.8314 18.4868 31.0935 19.3773 32.2994C19.8879 32.9914 20.0372 33.351 21.0865 34.45C21.5287 34.9121 22.2761 35.3769 22.4349 35.3779C22.5499 35.3665 21.9042 34.9288 21.4936 34.5333C20.9592 34.0185 20.6258 33.5089 20.7654 33.5071C20.84 33.5073 21.1988 34.1001 21.769 34.6008C22.5077 35.2506 23.5631 35.705 23.7475 35.7182C23.9186 35.7278 22.9193 35.2358 22.3902 34.7455C22.1173 34.4929 21.6787 34.0106 21.7814 33.9886C21.8316 33.9784 22.5237 34.6395 22.9553 34.9209C24.009 35.6077 24.9294 35.9296 25.1663 35.9296C25.4153 35.9295 23.9002 35.3349 22.9807 34.5544C22.3131 33.9878 21.7867 33.295 21.8717 33.3089C21.9892 33.3291 22.8228 34.2202 23.2781 34.5552C23.9598 35.056 25.1864 35.7383 25.7251 35.7436C25.9708 35.7454 24.9689 35.32 24.1433 34.7736C23.4791 34.3333 23.1263 33.936 22.7131 33.5642C22.4209 33.3011 21.677 32.3977 21.7953 32.3573C21.8883 32.3257 22.3262 33.201 23.5238 34.1114C24.216 34.6376 25.6304 35.391 25.884 35.3305C26.2173 35.2919 25.2732 35.0463 23.93 34.0667C23.5089 33.7597 22.8193 33.101 22.929 33.0949C23.0213 33.117 23.7915 33.7878 24.2538 34.0746C25.0812 34.5894 25.6418 34.7692 25.5198 34.6034C25.5198 34.5315 24.3696 33.9895 23.1887 32.9019C22.6939 32.4467 21.6481 31.2689 21.6471 31.168C21.6462 31.0189 22.32 31.8241 22.8728 32.3214C23.7212 33.0844 24.4512 33.5519 24.589 33.6194C24.7547 33.7018 24.3538 33.3405 24.1547 33.173C21.9656 31.3329 20.5723 29.5455 19.1931 27.0152C18.9571 26.5819 18.7377 26.1486 18.5351 25.7171C19.4598 23.1403 19.7669 20.9608 19.8739 20.2627C19.888 20.1688 19.9266 19.9952 20.002 19.9952C20.0757 19.99 20.1415 20.1925 20.1959 20.3775C20.4697 21.3099 20.7969 22.2264 21.1602 23.128C21.7182 24.512 22.3674 25.8601 23.0956 27.1634C24.0151 28.8087 25.0574 30.4032 26.2401 31.8732C26.9113 32.7081 27.5746 33.5177 28.3792 34.229C29.0618 34.8324 30.3085 35.5296 30.5761 35.5612C30.6551 35.5515 29.9874 35.1376 29.3548 34.6789C28.8249 34.2948 28.1011 33.6615 28.0888 33.5545C28.0827 33.5019 28.2388 33.4984 28.273 33.5185C28.3397 33.5571 29.0373 34.2517 29.4961 34.5394C30.9946 35.4795 32.0501 35.9234 32.2247 35.8603C32.3476 35.8041 30.7639 35.1209 29.7172 34.2658C28.8407 33.551 27.6439 32.1819 27.5527 31.8924C27.5413 31.8582 27.5773 31.846 27.5975 31.8451C27.6952 31.8455 28.9558 33.3923 29.6743 33.9851C31.8063 35.7419 34.3428 36.283 34.4024 36.2269C34.4068 36.2225 34.412 36.2067 34.3743 36.1918C34.0453 36.0629 32.1133 35.4217 30.5779 34.1509C29.5233 33.28 28.8363 32.5713 28.996 32.5459C29.1267 32.5248 30.0374 33.7053 31.6509 34.6552C33.1214 35.52 35.1719 36.2515 35.3553 36.1883C35.5236 36.1313 34.0576 35.6629 32.6021 34.821C32.259 34.6219 31.0789 33.8491 31.2114 33.7825C31.3105 33.7571 32.0695 34.2763 32.7644 34.6446C34.7402 35.6918 35.9167 35.9558 36.0484 35.8682C36.1107 35.805 34.5278 35.1349 34.0567 34.8955H34.0558C32.6801 34.1982 31.9379 33.7501 31.0614 33.0396C30.7174 32.7599 30.1928 32.3284 30.3481 32.2416C30.4595 32.1924 31.2711 33.0405 32.9363 33.9939C34.033 34.621 35.6097 35.4278 36.0326 35.3393C36.2361 35.2971 34.9858 34.8025 33.7303 34.0307C31.9589 32.9423 31.6282 32.6169 31.6773 32.5765C31.7343 32.5555 31.7422 32.5143 31.8177 32.5424C32.0712 32.638 32.4897 33.0212 32.9995 33.3141C34.2032 34.0061 35.2989 34.5349 35.4789 34.5166C35.6325 34.4999 34.4998 33.9553 32.2853 32.3748C31.1107 31.5365 29.8431 30.1291 29.9076 30.0752C29.9532 30.0384 30.563 30.7444 32.2361 32.0363C33.3258 32.8783 34.0514 33.0423 33.7356 32.8152C32.6723 32.1249 28.2827 29.1437 24.732 22.2255C22.5587 17.992 21.1926 14.7109 20.4082 9.67222C20.3617 9.37489 20.2608 8.27853 20.0072 8.28905Z" fill="#00843D"/>
<path d="M67.4839 25.0814C66.7882 26.3663 65.6055 27.5406 63.9437 28.1888C62.3802 28.7992 61.2572 29.3693 59.0014 29.3693H54.6716V39.9116H49.9565V12.4535H59.0023C61.1273 12.4535 62.2802 12.5877 63.7753 13.3218C65.2712 14.0559 66.3846 15.2996 67.1321 16.5844C67.8796 17.8693 68.2534 19.3253 68.2534 20.9513C68.2534 22.4204 68.1797 23.7974 67.4848 25.0814H67.4839ZM62.4232 23.8816C63.1576 23.1869 63.5252 22.2099 63.5252 20.9513C63.5252 18.2763 62.0302 16.9388 59.0392 16.9388H54.6707V24.9244H58.7645C60.2859 24.9244 61.688 24.5771 62.4232 23.8816Z" fill="black"/>
<path d="M83.1074 23.1554C84.1146 23.7211 84.9008 24.5534 85.4667 25.6523C86.0317 26.7522 86.3151 28.073 86.3151 29.614V39.6344H81.9975V30.1999C81.9975 28.8431 81.658 27.8003 80.9798 27.0705C80.3016 26.3408 79.3759 25.976 78.2037 25.976C77.0316 25.976 76.07 26.3408 75.3812 27.0705C74.6925 27.8003 74.3477 28.8431 74.3477 30.1999V39.6344H70.0292V15.7951H74.3477V24.6806C74.903 23.9403 75.6427 23.3597 76.5683 22.9387C77.4939 22.5177 78.5214 22.3064 79.6523 22.3064C80.9473 22.3064 82.0993 22.5888 83.1065 23.1545L83.1074 23.1554Z" fill="black"/>
<path d="M88.7981 26.4391C89.4868 25.1033 90.4221 24.0754 91.6048 23.3562C92.7866 22.637 94.108 22.2774 95.5679 22.2774C96.8428 22.2774 97.9579 22.5344 98.9143 23.0484C99.8706 23.5623 100.637 24.2096 101.212 24.991V22.5555H105.561V39.6362H101.212V37.1392C100.657 37.9408 99.8908 38.6039 98.9143 39.1275C97.9377 39.6519 96.8121 39.9133 95.5372 39.9133C94.0975 39.9133 92.7866 39.5432 91.6048 38.8038C90.4221 38.0636 89.4868 37.0208 88.7981 35.6745C88.1093 34.3282 87.7645 32.7819 87.7645 31.034C87.7645 29.286 88.1085 27.7766 88.7981 26.4399V26.4391ZM100.595 28.3967C100.184 27.6468 99.6285 27.0705 98.9301 26.6697C98.2308 26.2689 97.4806 26.0689 96.6787 26.0689C95.8768 26.0689 95.1363 26.2645 94.4581 26.6548C93.7798 27.0451 93.2289 27.6161 92.8077 28.366C92.3857 29.1167 92.1751 30.0052 92.1751 31.0331C92.1751 32.061 92.3857 32.96 92.8077 33.7309C93.2289 34.5019 93.7842 35.093 94.473 35.5035C95.1617 35.9148 95.897 36.12 96.6778 36.12C97.4587 36.12 98.2299 35.9192 98.9292 35.5192C99.6276 35.1184 100.183 34.5431 100.594 33.7923C101.006 33.0424 101.211 32.1426 101.211 31.0945C101.211 30.0464 101.005 29.1474 100.594 28.3967H100.595Z" fill="black"/>
<path d="M114.737 23.0782C115.631 22.5642 116.654 22.3072 117.806 22.3072V26.8399H116.665C115.307 26.8399 114.284 27.1591 113.595 27.7959C112.907 28.4335 112.562 29.543 112.562 31.1252V39.6344H108.243V22.5537H112.562V25.205C113.117 24.3008 113.842 23.5921 114.736 23.0773L114.737 23.0782Z" fill="black"/>
<path d="M145.456 24.2341C146.74 25.519 147.383 27.3126 147.383 29.614V39.6344H143.066V30.1999C143.066 28.8641 142.726 27.8415 142.048 27.1319C141.37 26.4224 140.444 26.0681 139.272 26.0681C138.1 26.0681 137.17 26.4224 136.481 27.1319C135.792 27.8406 135.447 28.8641 135.447 30.1999V39.6344H131.13V30.1999C131.13 28.8641 130.79 27.8415 130.112 27.1319C129.434 26.4224 128.508 26.0681 127.336 26.0681C126.164 26.0681 125.202 26.4224 124.514 27.1319C123.825 27.8406 123.48 28.8641 123.48 30.1999V39.6344H119.162V22.5537H123.48V24.6192C124.035 23.9 124.75 23.3352 125.623 22.9238C126.497 22.5125 127.459 22.3072 128.507 22.3072C129.844 22.3072 131.037 22.5897 132.085 23.1554C133.134 23.7211 133.946 24.5271 134.522 25.5752C135.077 24.5885 135.883 23.7974 136.942 23.201C138.001 22.6054 139.147 22.3072 140.382 22.3072C142.479 22.3072 144.17 22.9501 145.456 24.2341Z" fill="black"/>
<path d="M149.866 26.4391C150.555 25.1033 151.49 24.0754 152.673 23.3562C153.855 22.637 155.176 22.2774 156.636 22.2774C157.911 22.2774 159.026 22.5344 159.982 23.0484C160.939 23.5623 161.705 24.2096 162.28 24.991V22.5555H166.629V39.6362H162.28V37.1392C161.725 37.9408 160.959 38.6039 159.982 39.1275C159.006 39.6519 157.88 39.9133 156.605 39.9133C155.166 39.9133 153.855 39.5432 152.673 38.8038C151.49 38.0636 150.555 37.0208 149.866 35.6745C149.178 34.3282 148.833 32.7819 148.833 31.034C148.833 29.286 149.177 27.7766 149.866 26.4399V26.4391ZM161.663 28.3967C161.252 27.6468 160.697 27.0705 159.998 26.6697C159.299 26.2689 158.549 26.0689 157.747 26.0689C156.945 26.0689 156.204 26.2645 155.526 26.6548C154.848 27.0451 154.297 27.6161 153.876 28.366C153.454 29.1167 153.243 30.0052 153.243 31.0331C153.243 32.061 153.454 32.96 153.876 33.7309C154.297 34.5019 154.852 35.093 155.541 35.5035C156.23 35.9148 156.965 36.12 157.746 36.12C158.527 36.12 159.298 35.9192 159.997 35.5192C160.696 35.1184 161.251 34.5431 161.663 33.7923C162.074 33.0424 162.279 32.1426 162.279 31.0945C162.279 30.0464 162.073 29.1474 161.663 28.3967H161.663Z" fill="black"/>
<path d="M174.172 16.566V23.6404H183.505V27.9818H174.172V35.1167H184.844V39.5555H169.686L169.73 12.4482H184.669L184.625 16.5669H174.172V16.566Z" fill="black"/>
<path d="M189.903 39.1582C188.795 38.6556 187.917 37.9733 187.271 37.1111C186.624 36.249 186.27 35.2956 186.208 34.2484H190.549C190.631 34.9053 190.955 35.4491 191.519 35.8797C192.083 36.3103 192.786 36.5261 193.628 36.5261C194.47 36.5261 195.091 36.3621 195.552 36.0341C196.014 35.7061 196.245 35.2851 196.245 34.772C196.245 34.2177 195.963 33.8028 195.399 33.5257C194.834 33.2485 193.936 32.946 192.704 32.6179C191.431 32.3101 190.39 31.9926 189.579 31.6637C188.768 31.3357 188.07 30.8322 187.486 30.1552C186.9 29.4781 186.608 28.5651 186.608 27.4161C186.608 26.4724 186.88 25.6111 187.424 24.8305C187.968 24.0508 188.748 23.4351 189.764 22.9843C190.78 22.5335 191.976 22.3072 193.351 22.3072C195.383 22.3072 197.004 22.8151 198.216 23.8307C199.427 24.8463 200.094 26.2163 200.217 27.9397H196.092C196.03 27.2626 195.748 26.7241 195.245 26.3242C194.742 25.9242 194.069 25.7243 193.229 25.7243C192.449 25.7243 191.848 25.8681 191.428 26.1549C191.007 26.4426 190.797 26.8425 190.797 27.3556C190.797 27.9301 191.084 28.3668 191.659 28.6633C192.234 28.9606 193.126 29.2632 194.338 29.571C195.57 29.8789 196.586 30.1973 197.386 30.5253C198.186 30.8533 198.879 31.3611 199.464 32.0487C200.05 32.7363 200.352 33.6441 200.373 34.7729C200.373 35.7578 200.101 36.6401 199.557 37.4198C199.013 38.1995 198.233 38.81 197.217 39.2511C196.201 39.6923 195.015 39.9124 193.661 39.9124C192.306 39.9124 191.013 39.6607 189.905 39.1582H189.903Z" fill="black"/>
<path d="M205.144 39.1582C204.036 38.6556 203.158 37.9733 202.512 37.1111C201.865 36.249 201.511 35.2956 201.449 34.2484H205.79C205.872 34.9053 206.196 35.4491 206.76 35.8797C207.324 36.3103 208.027 36.5261 208.869 36.5261C209.711 36.5261 210.332 36.3621 210.793 36.0341C211.255 35.7061 211.486 35.2851 211.486 34.772C211.486 34.2177 211.204 33.8028 210.64 33.5257C210.075 33.2485 209.177 32.946 207.945 32.6179C206.672 32.3101 205.631 31.9926 204.82 31.6637C204.009 31.3357 203.311 30.8322 202.727 30.1552C202.141 29.4781 201.849 28.5651 201.849 27.4161C201.849 26.4724 202.121 25.6111 202.665 24.8305C203.209 24.0508 203.989 23.4351 205.005 22.9843C206.021 22.5335 207.217 22.3072 208.592 22.3072C210.624 22.3072 212.245 22.8151 213.457 23.8307C214.668 24.8463 215.335 26.2163 215.458 27.9397H211.333C211.271 27.2626 210.989 26.7241 210.486 26.3242C209.983 25.9242 209.31 25.7243 208.47 25.7243C207.69 25.7243 207.089 25.8681 206.669 26.1549C206.247 26.4426 206.038 26.8425 206.038 27.3556C206.038 27.9301 206.325 28.3668 206.9 28.6633C207.475 28.9606 208.367 29.2632 209.579 29.571C210.811 29.8789 211.827 30.1973 212.627 30.5253C213.427 30.8533 214.12 31.3611 214.705 32.0487C215.291 32.7363 215.593 33.6441 215.614 34.7729C215.614 35.7578 215.342 36.6401 214.798 37.4198C214.254 38.1995 213.474 38.81 212.458 39.2511C211.442 39.6923 210.256 39.9124 208.902 39.9124C207.547 39.9124 206.254 39.6607 205.146 39.1582H205.144Z" fill="black"/>
<path d="M220.877 32.4022C220.98 33.6336 221.41 34.5983 222.17 35.2956C222.929 35.9937 223.863 36.3419 224.972 36.3419C226.573 36.3419 227.712 35.6543 228.389 34.28H233.038C232.546 35.9218 231.601 37.2707 230.206 38.3276C228.81 39.3844 227.097 39.9124 225.065 39.9124C223.422 39.9124 221.95 39.5484 220.646 38.8196C219.342 38.0917 218.326 37.0602 217.598 35.7262C216.869 34.3922 216.505 32.8539 216.505 31.1094C216.505 29.3649 216.864 27.7959 217.582 26.4619C218.301 25.1287 219.306 24.1026 220.6 23.3843C221.893 22.666 223.381 22.3072 225.064 22.3072C226.747 22.3072 228.137 22.6563 229.421 23.3536C230.704 24.0517 231.699 25.0419 232.407 26.3233C233.115 27.6056 233.47 29.0781 233.47 30.7402C233.47 31.3559 233.429 31.9102 233.347 32.4022H220.877ZM229.005 29.5096C228.984 28.4019 228.584 27.5143 227.804 26.8478C227.024 26.1812 226.069 25.8471 224.941 25.8471C223.873 25.8471 222.976 26.1707 222.246 26.8162C221.517 27.4626 221.071 28.3607 220.907 29.5096H229.005Z" fill="black"/>
<path d="M249.449 24.2613C250.701 25.5436 251.327 27.3345 251.327 29.6324V39.6353H247.017V30.2174C247.017 28.8633 246.678 27.8222 246.001 27.0933C245.323 26.3654 244.399 26.0005 243.23 26.0005C242.06 26.0005 241.1 26.3654 240.413 27.0933C239.725 27.8222 239.381 28.8633 239.381 30.2174V39.6353H235.07V22.5844H239.381V24.7078C239.955 23.9693 240.689 23.3895 241.582 22.9686C242.475 22.5484 243.455 22.3379 244.522 22.3379C246.554 22.3379 248.196 22.9791 249.449 24.2613Z" fill="black"/>
<path d="M258.901 26.1242V34.3729C258.901 34.9474 259.039 35.3631 259.317 35.6192C259.594 35.8762 260.061 36.0043 260.718 36.0043H262.719V39.6362H260.01C256.377 39.6362 254.56 37.8715 254.56 34.3422V26.1251H252.528V22.5853H254.56V18.3684H258.902V22.5853H262.719V26.1251H258.902L258.901 26.1242Z" fill="black"/>
<path d="M264.581 20.1927C264.078 19.7112 263.826 19.1104 263.826 18.3921C263.826 17.6738 264.077 17.0738 264.581 16.5915C265.084 16.11 265.714 15.8679 266.474 15.8679C267.234 15.8679 267.865 16.1091 268.368 16.5915C268.87 17.0738 269.122 17.6738 269.122 18.3921C269.122 19.1104 268.87 19.7103 268.368 20.1927C267.864 20.675 267.233 20.9162 266.474 20.9162C265.715 20.9162 265.084 20.675 264.581 20.1927ZM268.598 22.5844V39.6353H264.288V22.5844H268.598Z" fill="black"/>
<path d="M271.231 26.4627C271.918 25.1296 272.852 24.1035 274.032 23.3852C275.212 22.6668 276.531 22.3081 277.988 22.3081C279.26 22.3081 280.375 22.5651 281.328 23.0773C282.283 23.5904 283.047 24.2368 283.622 25.0165V22.5853H287.963V39.6362H283.622V37.1436C283.067 37.9434 282.303 38.6056 281.328 39.1283C280.354 39.6519 279.23 39.9133 277.956 39.9133C276.519 39.9133 275.211 39.5441 274.031 38.8056C272.85 38.0671 271.917 37.026 271.23 35.6815C270.542 34.3379 270.198 32.7934 270.198 31.0498C270.198 29.3062 270.542 27.7976 271.23 26.4636L271.231 26.4627ZM283.008 28.4168C282.597 27.6678 282.042 27.0933 281.345 26.6934C280.647 26.2935 279.898 26.0935 279.097 26.0935C278.296 26.0935 277.557 26.2891 276.88 26.6785C276.203 27.0688 275.653 27.638 275.233 28.387C274.812 29.136 274.602 30.0236 274.602 31.0489C274.602 32.0742 274.813 32.9723 275.233 33.7423C275.653 34.5115 276.208 35.1018 276.896 35.5122C277.584 35.9227 278.317 36.1279 279.097 36.1279C279.877 36.1279 280.647 35.928 281.345 35.528C282.042 35.1281 282.597 34.5536 283.008 33.8046C283.418 33.0556 283.623 32.1584 283.623 31.1112C283.623 30.0639 283.418 29.1676 283.008 28.4177V28.4168Z" fill="black"/>
</g>
<defs>
<clipPath id="clip0_5237_166">
<rect width="288" height="40" fill="white"/>
</clipPath>
</defs>
</svg>
