<?xml version="1.0" encoding="UTF-8"?>
<svg xmlns="http://www.w3.org/2000/svg" width="369" height="103" viewBox="0 0 369 103" fill="none">
  <g clip-path="url(#clip0_20252_230)">
    <path d="M268.953 92.8856C268.852 92.7851 268.799 92.6635 268.799 92.5208V85.7108C268.799 85.5681 268.852 85.4465 268.953 85.3407C269.053 85.235 269.175 85.1821 269.318 85.1821H271.968C272.756 85.1821 273.37 85.3619 273.819 85.7267C274.269 86.0915 274.491 86.5885 274.491 87.223C274.491 87.6354 274.396 87.9896 274.2 88.2857C274.005 88.5818 273.745 88.8039 273.412 88.9519C273.878 89.0999 274.243 89.3379 274.518 89.6551C274.793 89.9723 274.925 90.3636 274.925 90.8289C274.925 91.5532 274.682 92.1031 274.19 92.4785C273.698 92.8539 272.978 93.0389 272.026 93.0389H269.307C269.164 93.0389 269.043 92.986 268.942 92.8856H268.953ZM273.079 88.2487C273.354 88.0372 273.497 87.72 273.497 87.3023C273.497 86.9481 273.354 86.6731 273.063 86.4669C272.777 86.2607 272.386 86.1603 271.889 86.1603H269.979C269.889 86.1603 269.847 86.2078 269.847 86.2977V88.5765H271.698C272.344 88.5765 272.804 88.4708 273.079 88.254V88.2487ZM273.454 91.7383C273.766 91.5268 273.92 91.2043 273.92 90.7813C273.92 89.9353 273.259 89.5123 271.941 89.5123H269.841V91.9233C269.841 92.0132 269.889 92.0555 269.974 92.0555H271.926C272.629 92.0555 273.137 91.9497 273.449 91.733L273.454 91.7383Z" fill="#231815"></path>
    <path d="M277.237 85.9699C277.12 85.8536 277.062 85.7161 277.062 85.5575V85.5152C277.062 85.3566 277.12 85.2191 277.237 85.1028C277.353 84.9865 277.491 84.9283 277.649 84.9283H277.718C277.877 84.9283 278.009 84.9865 278.125 85.1028C278.242 85.2191 278.3 85.3566 278.3 85.5152V85.5575C278.3 85.7161 278.242 85.8536 278.125 85.9699C278.009 86.0862 277.871 86.1444 277.718 86.1444H277.649C277.491 86.1444 277.353 86.0862 277.237 85.9699ZM277.305 92.9385C277.205 92.838 277.152 92.7164 277.152 92.5736V87.757C277.152 87.6142 277.205 87.4926 277.305 87.3869C277.406 87.2811 277.528 87.2283 277.67 87.2283C277.819 87.2283 277.945 87.2811 278.046 87.3816C278.146 87.4821 278.199 87.609 278.199 87.757V92.5736C278.199 92.7164 278.146 92.838 278.041 92.9385C277.935 93.0389 277.813 93.0918 277.67 93.0918C277.528 93.0918 277.406 93.0389 277.305 92.9385Z" fill="#231815"></path>
    <path d="M281.828 92.7746C281.395 92.5208 281.056 92.1665 280.818 91.7065C280.58 91.2518 280.458 90.7337 280.458 90.1574C280.458 89.5811 280.58 89.0524 280.818 88.5977C281.056 88.143 281.395 87.7887 281.834 87.5455C282.273 87.297 282.775 87.1754 283.341 87.1754C283.907 87.1754 284.41 87.297 284.843 87.5455C285.283 87.7993 285.626 88.1535 285.864 88.6082C286.102 89.0629 286.224 89.5811 286.224 90.1627C286.224 90.7443 286.102 91.2624 285.864 91.7118C285.616 92.1771 285.277 92.5313 284.838 92.7798C284.399 93.0283 283.902 93.1499 283.341 93.1499C282.78 93.1499 282.262 93.0283 281.823 92.7798L281.828 92.7746ZM284.23 91.9762C284.521 91.8282 284.754 91.5955 284.928 91.2836C285.103 90.9716 285.187 90.5909 285.187 90.1468C285.187 89.6763 285.097 89.2956 284.918 89.0048C284.754 88.7193 284.537 88.5025 284.262 88.3545C283.987 88.2064 283.685 88.1324 283.346 88.1324C283.04 88.1324 282.743 88.2011 282.458 88.3333C282.167 88.4814 281.934 88.7087 281.76 89.0154C281.585 89.322 281.5 89.6974 281.5 90.1468C281.5 90.628 281.59 91.0086 281.77 91.3047C281.934 91.5955 282.151 91.8176 282.426 91.9656C282.701 92.1137 283.003 92.1877 283.341 92.1877C283.648 92.1877 283.944 92.1137 284.23 91.9762Z" fill="#231815"></path>
    <path d="M291.519 92.2512C291.604 92.3357 291.641 92.4309 291.641 92.5419C291.641 92.7164 291.551 92.8486 291.371 92.9438C291.08 93.0812 290.768 93.1447 290.44 93.1447C289.34 93.1447 288.79 92.6477 288.79 91.6537V88.2435H288.229C288.086 88.2435 287.975 88.2064 287.896 88.1271C287.816 88.0478 287.779 87.9368 287.779 87.794C287.779 87.6513 287.816 87.5403 287.896 87.4609C287.975 87.3816 288.086 87.3446 288.229 87.3446H288.79V86.5463C288.79 86.3718 288.837 86.2449 288.933 86.155C289.028 86.0651 289.155 86.0228 289.319 86.0228C289.483 86.0228 289.61 86.0704 289.7 86.1656C289.79 86.2608 289.832 86.3876 289.832 86.5515V87.3499H291.091C291.218 87.3499 291.324 87.3922 291.413 87.4768C291.498 87.5614 291.54 87.6671 291.54 87.7993C291.54 87.9209 291.498 88.0214 291.413 88.1113C291.329 88.2012 291.223 88.2435 291.091 88.2435H289.832V91.5638C289.832 91.8282 289.89 92.0027 290.012 92.0925C290.133 92.1824 290.313 92.2247 290.551 92.2247C290.71 92.2247 290.858 92.2036 291.001 92.156C291.017 92.156 291.027 92.156 291.033 92.1454C291.107 92.1295 291.17 92.1243 291.223 92.1243C291.334 92.1243 291.435 92.1666 291.514 92.2459L291.519 92.2512Z" fill="#231815"></path>
    <path d="M293.947 92.3622C293.434 91.8388 293.18 91.1038 293.18 90.1627C293.18 89.6551 293.276 89.1634 293.471 88.6929C293.672 88.2223 293.979 87.8522 294.392 87.5825C294.804 87.3129 295.296 87.1807 295.873 87.1807C296.449 87.1807 296.91 87.3076 297.322 87.5614C297.714 87.8152 298.015 88.1589 298.232 88.5871C298.449 89.0154 298.56 89.4965 298.56 90.02C298.56 90.1627 298.512 90.2843 298.412 90.3848C298.311 90.4852 298.19 90.5381 298.031 90.5381H294.238C294.307 91.0668 294.508 91.4739 294.841 91.7542C295.175 92.0344 295.624 92.1771 296.196 92.1771C296.497 92.1771 296.762 92.1507 297 92.0925C297.238 92.0344 297.47 91.9498 297.714 91.8282C297.767 91.7964 297.835 91.7859 297.915 91.7859C298.036 91.7859 298.142 91.8282 298.237 91.9128C298.333 91.9974 298.38 92.1031 298.38 92.2353C298.38 92.4098 298.28 92.5472 298.079 92.6636C297.767 92.838 297.465 92.9596 297.179 93.0389C296.894 93.1183 296.539 93.1553 296.111 93.1553C295.19 93.1553 294.471 92.8909 293.963 92.3675L293.947 92.3622ZM297.513 89.5335C297.481 89.2322 297.391 88.9837 297.243 88.7827C297.079 88.5448 296.873 88.3651 296.629 88.2435C296.386 88.1218 296.132 88.0637 295.873 88.0637C295.635 88.0637 295.381 88.1219 295.122 88.2329C294.857 88.3598 294.651 88.5501 294.497 88.7986C294.344 89.0471 294.254 89.3432 294.233 89.6816H297.375C297.47 89.6816 297.518 89.634 297.507 89.5335H297.513Z" fill="#231815"></path>
    <path d="M301.909 92.7851C301.438 92.5366 301.068 92.1877 300.798 91.7277C300.528 91.273 300.396 90.7496 300.396 90.1574C300.396 89.5652 300.533 89.0206 300.814 88.5659C301.083 88.1271 301.443 87.7834 301.898 87.5402C302.353 87.297 302.855 87.1754 303.406 87.1754C303.781 87.1754 304.109 87.223 304.395 87.3182C304.68 87.4133 304.966 87.5455 305.246 87.7147C305.395 87.8204 305.469 87.9526 305.469 88.1165C305.469 88.2276 305.426 88.3333 305.336 88.4285C305.247 88.5236 305.146 88.5765 305.035 88.5765C304.961 88.5765 304.876 88.5554 304.786 88.5078C304.522 88.3703 304.305 88.2804 304.136 88.2276C303.961 88.1747 303.749 88.1483 303.496 88.1483C302.866 88.1483 302.369 88.328 301.999 88.6928C301.628 89.0577 301.443 89.5441 301.443 90.1574C301.443 90.7707 301.628 91.2571 301.999 91.6219C302.369 91.9868 302.871 92.1665 303.496 92.1665C303.749 92.1665 303.961 92.1401 304.136 92.0872C304.31 92.0344 304.527 91.9392 304.786 91.807C304.876 91.7647 304.961 91.7383 305.035 91.7383C305.146 91.7383 305.247 91.7859 305.336 91.8863C305.426 91.9868 305.469 92.0872 305.469 92.1983C305.469 92.3622 305.395 92.4996 305.246 92.6001C304.961 92.7746 304.675 92.9067 304.395 92.9966C304.109 93.0918 303.781 93.1394 303.406 93.1394C302.877 93.1394 302.374 93.0178 301.914 92.7798L301.909 92.7851Z" fill="#231815"></path>
    <path d="M307.738 92.9385C307.638 92.838 307.585 92.7164 307.585 92.5737V85.2932C307.585 85.1504 307.638 85.0288 307.738 84.9231C307.839 84.8173 307.96 84.7645 308.103 84.7645C308.246 84.7645 308.368 84.8173 308.473 84.9231C308.579 85.0288 308.632 85.1504 308.632 85.2932V88.1906C308.939 87.8628 309.256 87.609 309.584 87.4398C309.912 87.2653 310.288 87.1807 310.706 87.1807C311.124 87.1807 311.478 87.2759 311.795 87.4715C312.097 87.6671 312.324 87.9315 312.488 88.2699C312.647 88.6083 312.732 88.9837 312.732 89.3908V92.579C312.732 92.7217 312.679 92.8433 312.573 92.9438C312.467 93.0442 312.345 93.0971 312.203 93.0971C312.06 93.0971 311.938 93.0442 311.838 92.9438C311.737 92.8433 311.684 92.7217 311.684 92.579V89.5018C311.684 88.5977 311.277 88.143 310.462 88.143C310.103 88.143 309.78 88.2329 309.489 88.4126C309.203 88.5924 308.912 88.8568 308.632 89.211V92.579C308.632 92.7217 308.579 92.8433 308.473 92.9438C308.368 93.0442 308.246 93.0971 308.103 93.0971C307.96 93.0971 307.839 93.0442 307.738 92.9438V92.9385Z" fill="#231815"></path>
    <path d="M321.18 92.653C320.571 92.3252 320.1 91.8546 319.762 91.2413C319.423 90.628 319.249 89.9195 319.249 89.1105C319.249 88.3016 319.423 87.5826 319.767 86.9692C320.106 86.3612 320.571 85.8959 321.164 85.5681C321.761 85.2403 322.433 85.0764 323.19 85.0764C323.682 85.0764 324.131 85.1346 324.528 85.2456C324.925 85.3566 325.332 85.5311 325.75 85.7743C325.925 85.8589 326.009 86.0017 326.009 86.2132C326.009 86.3242 325.967 86.4247 325.882 86.5145C325.798 86.6044 325.687 86.6467 325.549 86.6467C325.464 86.6467 325.401 86.6308 325.348 86.5991C325.004 86.4194 324.676 86.2872 324.359 86.2026C324.047 86.118 323.687 86.0757 323.29 86.0757C322.645 86.0757 322.105 86.2079 321.661 86.4669C321.217 86.7313 320.878 87.0856 320.645 87.5403C320.413 87.995 320.291 88.5184 320.291 89.1158C320.291 89.7133 320.407 90.2314 320.64 90.6756C320.873 91.1461 321.217 91.5109 321.672 91.77C322.126 92.0291 322.666 92.156 323.29 92.156C323.687 92.156 324.041 92.1137 324.359 92.0291C324.671 91.9445 325.004 91.8123 325.348 91.6325C325.401 91.6008 325.47 91.5902 325.549 91.5902C325.681 91.5902 325.792 91.6325 325.882 91.7171C325.967 91.8017 326.009 91.9075 326.009 92.0238C326.009 92.2247 325.925 92.3728 325.75 92.4626C325.332 92.7006 324.925 92.8803 324.528 92.9914C324.131 93.1024 323.687 93.1605 323.19 93.1605C322.444 93.1605 321.772 92.9966 321.18 92.6688V92.653Z" fill="#231815"></path>
    <path d="M329.024 92.7746C328.591 92.5208 328.252 92.1665 328.014 91.7065C327.776 91.2518 327.654 90.7337 327.654 90.1574C327.654 89.5811 327.776 89.0524 328.014 88.5977C328.252 88.143 328.591 87.7887 329.03 87.5455C329.469 87.3023 329.971 87.1754 330.537 87.1754C331.103 87.1754 331.606 87.297 332.04 87.5455C332.479 87.7993 332.823 88.1535 333.061 88.6082C333.299 89.0629 333.42 89.5811 333.42 90.1627C333.42 90.7443 333.299 91.2624 333.061 91.7118C332.812 92.1771 332.473 92.5313 332.034 92.7798C331.595 93.0283 331.098 93.1499 330.537 93.1499C329.977 93.1499 329.458 93.0283 329.019 92.7798L329.024 92.7746ZM331.426 91.9762C331.717 91.8282 331.95 91.5955 332.124 91.2836C332.299 90.9716 332.384 90.5909 332.384 90.1468C332.384 89.6763 332.294 89.2956 332.114 89.0048C331.95 88.7193 331.733 88.5025 331.458 88.3545C331.183 88.2064 330.881 88.1324 330.543 88.1324C330.236 88.1324 329.94 88.2011 329.654 88.3333C329.363 88.4814 329.13 88.7087 328.956 89.0154C328.781 89.322 328.696 89.6974 328.696 90.1468C328.696 90.628 328.786 91.0086 328.966 91.3047C329.13 91.5955 329.347 91.8176 329.622 91.9656C329.897 92.1137 330.199 92.1877 330.537 92.1877C330.844 92.1877 331.14 92.1137 331.426 91.9762Z" fill="#231815"></path>
    <path d="M335.658 92.875C335.531 92.7481 335.467 92.6001 335.467 92.4256V92.3568C335.467 92.1824 335.531 92.0343 335.658 91.9074C335.785 91.7805 335.933 91.7171 336.108 91.7171H336.219C336.393 91.7171 336.541 91.7805 336.668 91.9074C336.795 92.0343 336.859 92.1824 336.859 92.3568V92.4256C336.859 92.6001 336.795 92.7481 336.668 92.875C336.541 93.0019 336.393 93.0653 336.219 93.0653H336.108C335.933 93.0653 335.785 93.0019 335.658 92.875Z" fill="#231815"></path>
    <path d="M339.282 94.6198C339.213 94.551 339.181 94.4664 339.181 94.3766C339.181 94.255 339.239 94.1598 339.35 94.0858C339.551 93.9642 339.699 93.832 339.789 93.6839C339.879 93.5359 339.927 93.3297 339.927 93.0653H339.895C339.721 93.0653 339.572 93.0019 339.445 92.875C339.319 92.7481 339.255 92.6001 339.255 92.4256V92.3568C339.255 92.1824 339.319 92.0343 339.445 91.9074C339.572 91.7805 339.721 91.7171 339.895 91.7171H340.006C340.17 91.7171 340.313 91.7806 340.429 91.9022C340.546 92.0238 340.62 92.1771 340.646 92.3568C340.662 92.4309 340.667 92.5419 340.667 92.6952C340.667 92.8486 340.662 92.9437 340.646 93.023C340.588 93.4249 340.488 93.758 340.355 94.0223C340.223 94.2867 340.011 94.4982 339.726 94.6726C339.668 94.7097 339.599 94.7308 339.525 94.7308C339.435 94.7308 339.356 94.6938 339.287 94.6251L339.282 94.6198Z" fill="#231815"></path>
    <path d="M347.788 92.8221C347.645 92.6794 347.576 92.5102 347.576 92.3198V85.6527C347.576 85.5099 347.629 85.3883 347.729 85.2826C347.83 85.1768 347.952 85.124 348.094 85.124C348.237 85.124 348.359 85.1768 348.465 85.2826C348.57 85.3883 348.623 85.5099 348.623 85.6527V91.8599C348.623 91.9497 348.671 91.992 348.756 91.992H352.279C352.422 91.992 352.543 92.0449 352.649 92.1507C352.755 92.2564 352.808 92.378 352.808 92.5208C352.808 92.6635 352.755 92.7851 352.649 92.8856C352.543 92.986 352.422 93.0389 352.279 93.0389H348.295C348.1 93.0389 347.93 92.9702 347.788 92.8274V92.8221Z" fill="#231815"></path>
    <path d="M357.77 92.2512C357.854 92.3357 357.891 92.4309 357.891 92.5419C357.891 92.7164 357.801 92.8486 357.621 92.9438C357.331 93.0812 357.018 93.1447 356.69 93.1447C355.59 93.1447 355.04 92.6477 355.04 91.6537V88.2435H354.479C354.336 88.2435 354.225 88.2064 354.146 88.1271C354.067 88.0478 354.03 87.9368 354.03 87.794C354.03 87.6513 354.067 87.5403 354.146 87.4609C354.225 87.3816 354.336 87.3446 354.479 87.3446H355.04V86.5463C355.04 86.3718 355.088 86.2449 355.183 86.155C355.278 86.0651 355.405 86.0228 355.569 86.0228C355.733 86.0228 355.86 86.0704 355.95 86.1656C356.04 86.2608 356.082 86.3876 356.082 86.5515V87.3499H357.341C357.468 87.3499 357.574 87.3922 357.664 87.4768C357.748 87.5614 357.791 87.6671 357.791 87.7993C357.791 87.9209 357.748 88.0214 357.664 88.1113C357.579 88.2012 357.473 88.2435 357.341 88.2435H356.082V91.5638C356.082 91.8282 356.14 92.0027 356.262 92.0925C356.384 92.1824 356.564 92.2247 356.802 92.2247C356.96 92.2247 357.108 92.2036 357.251 92.156C357.267 92.156 357.278 92.156 357.283 92.1454C357.357 92.1295 357.42 92.1243 357.473 92.1243C357.584 92.1243 357.685 92.1666 357.764 92.2459L357.77 92.2512Z" fill="#231815"></path>
    <path d="M360.843 92.7851C360.409 92.5472 360.065 92.1983 359.811 91.733C359.558 91.273 359.431 90.7496 359.431 90.1574C359.431 89.5652 359.563 89.0206 359.822 88.5659C360.076 88.1165 360.409 87.7729 360.822 87.5349C361.234 87.297 361.679 87.1754 362.16 87.1754C362.895 87.1754 363.53 87.4556 364.07 88.0161V85.2879C364.07 85.1398 364.123 85.0129 364.229 84.9125C364.334 84.812 364.456 84.7592 364.599 84.7592C364.742 84.7592 364.863 84.812 364.964 84.9178C365.064 85.0235 365.117 85.1451 365.117 85.2879V92.5684C365.117 92.7111 365.064 92.8327 364.964 92.9332C364.863 93.0336 364.742 93.0865 364.599 93.0865C364.456 93.0865 364.334 93.0336 364.229 92.9332C364.123 92.8327 364.07 92.7111 364.07 92.5684V92.2987C363.53 92.8592 362.895 93.1394 362.16 93.1394C361.705 93.1394 361.266 93.0178 360.848 92.7798L360.843 92.7851ZM363.25 91.9445C363.551 91.7964 363.826 91.5955 364.065 91.3364V88.9783C363.826 88.7246 363.551 88.5236 363.25 88.3703C362.948 88.2223 362.631 88.1483 362.303 88.1483C361.732 88.1483 361.287 88.328 360.959 88.6823C360.631 89.0365 360.473 89.5282 360.473 90.1574C360.473 90.7866 360.637 91.2783 360.959 91.6325C361.287 91.9868 361.732 92.1665 362.303 92.1665C362.631 92.1665 362.948 92.0925 363.25 91.9445Z" fill="#231815"></path>
    <path d="M367.799 92.875C367.672 92.7481 367.609 92.6001 367.609 92.4256V92.3568C367.609 92.1824 367.672 92.0343 367.799 91.9074C367.926 91.7805 368.074 91.7171 368.249 91.7171H368.36C368.534 91.7171 368.683 91.7805 368.81 91.9074C368.937 92.0343 369 92.1824 369 92.3568V92.4256C369 92.6001 368.937 92.7481 368.81 92.875C368.683 93.0019 368.534 93.0653 368.36 93.0653H368.249C368.074 93.0653 367.926 93.0019 367.799 92.875Z" fill="#231815"></path>
    <path d="M83.9925 91.9709V89.0101L83.9026 89.2744C83.7598 89.5916 83.6275 89.8349 83.5058 89.9988C83.3842 90.1627 83.2837 90.242 83.2096 90.242C83.0774 90.242 82.9769 90.205 82.9187 90.1309C82.8605 90.0569 82.8287 89.9353 82.8287 89.7661C82.8287 89.6815 82.8922 89.5282 83.0192 89.3008C83.7915 87.9315 84.2676 86.303 84.4421 84.4049H83.4741C83.2784 84.4049 83.1355 84.3679 83.0456 84.2992C82.9557 84.2304 82.9081 84.1141 82.9081 83.9661C82.9081 83.6541 83.0985 83.5008 83.4741 83.5008H86.5475C86.9231 83.5008 87.1135 83.6541 87.1135 83.9661C87.1135 84.1194 87.0659 84.2304 86.976 84.2992C86.8808 84.3732 86.7432 84.4049 86.5475 84.4049H85.352L85.3414 84.6164C85.1986 85.5575 84.9817 86.4616 84.6855 87.334C84.7172 87.3076 85.1669 87.297 86.0185 87.297C86.6639 87.297 86.9866 87.6195 86.9866 88.2646V91.9656C86.9866 92.6106 86.6639 92.9332 86.0185 92.9332H84.9711C84.3152 92.9332 83.9872 92.6106 83.9872 91.9656L83.9925 91.9709ZM86.045 91.992C86.1137 91.9233 86.1455 91.8281 86.1455 91.7065V88.5448C86.1455 88.4179 86.1084 88.3227 86.0397 88.254C85.9709 88.1852 85.8757 88.1535 85.754 88.1535H85.0981C84.9288 88.1535 84.8442 88.2434 84.8442 88.4179V91.7065C84.8442 91.9656 84.9764 92.0978 85.2356 92.0978H85.754C85.881 92.0978 85.9762 92.0608 86.045 91.992ZM86.41 93.6575C86.41 93.4407 86.5845 93.2715 86.939 93.1552C87.7642 92.8697 88.4043 92.5525 88.8645 92.2088C89.0919 92.0396 89.2612 91.955 89.3829 91.955C89.6844 91.955 89.8378 92.0978 89.8378 92.3833C89.8378 92.6212 89.4252 92.9702 88.6053 93.4407C87.7906 93.9113 87.2087 94.1439 86.8543 94.1439C86.5581 94.1439 86.4153 93.98 86.4153 93.6522L86.41 93.6575ZM88.0816 91.4845C87.9176 91.3311 87.8435 91.0721 87.8594 90.7125V86.3929C87.8594 86.0175 87.9387 85.7426 88.1027 85.5787C88.2667 85.4148 88.5259 85.346 88.8751 85.3725H89.7214L89.8748 84.2146H87.8858C87.5685 84.2146 87.4045 84.0718 87.4045 83.7863C87.4045 83.5008 87.5632 83.358 87.8858 83.358H93.6677C94.0221 83.358 94.1967 83.5008 94.1967 83.7863C94.1967 84.0718 94.0221 84.2146 93.6677 84.2146H90.9328L90.6313 85.3725H92.4087C92.7843 85.3725 93.0593 85.4518 93.2286 85.6104C93.3979 85.769 93.4667 86.0334 93.4402 86.4035V90.6967C93.4402 91.0668 93.3609 91.3364 93.1969 91.5003C93.0329 91.6695 92.7684 91.7382 92.4087 91.7171H88.8803C88.5101 91.7171 88.2456 91.6378 88.0816 91.4845ZM92.4827 86.6308C92.4827 86.4986 92.4404 86.3876 92.3611 86.3083C92.2817 86.229 92.1759 86.1867 92.0384 86.1867H89.2189C89.0866 86.1867 88.9756 86.2237 88.8962 86.2977C88.8169 86.3717 88.7745 86.4828 88.7745 86.6255V87.1913H92.4775V86.6255L92.4827 86.6308ZM92.4827 89.0365V87.9896H88.7798V89.0365H92.4827ZM92.3611 90.7866C92.4404 90.7125 92.4827 90.6068 92.4827 90.4746V89.8349H88.7798V90.4905C88.7798 90.7654 88.928 90.9082 89.2189 90.9082H92.0384C92.1706 90.9082 92.2817 90.8711 92.3611 90.7971V90.7866ZM93.2286 93.9219C92.9906 93.8055 92.6785 93.6258 92.2923 93.3826C91.5676 92.9279 91.2079 92.5948 91.2079 92.378C91.2079 92.1084 91.3613 91.9762 91.6628 91.9762C91.7898 91.9762 91.9379 92.0449 92.1177 92.1929C92.4722 92.4679 92.9377 92.7322 93.5143 92.986C94.0168 93.2028 94.2707 93.4143 94.2707 93.6152C94.2707 93.943 94.112 94.1069 93.7893 94.1069C93.6571 94.1069 93.4667 94.0488 93.2286 93.9324V93.9219Z" fill="#231815"></path>
    <path d="M112.357 91.3417C112.357 91.6589 112.161 91.8228 111.775 91.8228H107.115V93.5993C107.115 94.0276 106.94 94.2391 106.596 94.2391C106.252 94.2391 106.067 94.0276 106.067 93.5993V91.8228H101.433C101.237 91.8228 101.1 91.7858 101.005 91.7118C100.915 91.6378 100.867 91.5162 100.867 91.347C100.867 91.035 101.058 90.8817 101.433 90.8817H106.067V89.9512H105.993C105.607 89.9829 105.321 89.9089 105.136 89.7238C104.951 89.5388 104.877 89.248 104.909 88.8567V85.5839C104.507 86.0809 104.216 86.3241 104.041 86.3241C103.74 86.3241 103.586 86.1708 103.586 85.8589C103.586 85.7161 103.676 85.5522 103.851 85.3672C104.496 84.6957 105.025 83.9555 105.438 83.1518C105.58 82.8769 105.771 82.7341 106.004 82.7341C106.363 82.7341 106.543 82.8822 106.543 83.173C106.543 83.2629 106.379 83.5536 106.051 84.0401H108.22L108.659 83.1571C108.791 82.898 108.971 82.7659 109.188 82.7659C109.521 82.7659 109.691 82.898 109.691 83.1677C109.691 83.2787 109.537 83.5642 109.236 84.0348H111.78C112.098 84.0348 112.256 84.1775 112.256 84.463C112.256 84.7486 112.098 84.8807 111.78 84.8807H109.162V85.6844H111.468C111.754 85.6844 111.897 85.8166 111.897 86.0756C111.897 86.3347 111.754 86.4669 111.468 86.4669H109.162V87.3499H111.468C111.754 87.3499 111.897 87.482 111.897 87.7411C111.897 88.0002 111.754 88.1324 111.468 88.1324H109.162V89.0999H111.817C112.135 89.0999 112.293 89.2427 112.293 89.5282C112.293 89.8137 112.135 89.9459 111.817 89.9459H107.104V90.8764H111.764C112.15 90.8764 112.346 91.0298 112.346 91.3417H112.357ZM101.153 85.6685C101.058 85.5734 101.01 85.4835 101.01 85.3989C101.01 85.0711 101.179 84.9072 101.513 84.9072C101.613 84.9072 101.93 85.0499 102.459 85.3354C102.761 85.494 102.914 85.695 102.914 85.9276C102.914 86.2607 102.75 86.4299 102.422 86.4299C102.322 86.4299 102.169 86.3612 101.957 86.229L101.618 86.0122C101.407 85.88 101.253 85.7637 101.158 85.6632L101.153 85.6685ZM103.11 87.26C103.279 87.0643 103.438 86.9692 103.591 86.9692C103.919 86.9692 104.083 87.1225 104.083 87.4345C104.083 87.6195 103.771 88.0954 103.152 88.8673C102.539 89.6286 102.11 90.0146 101.867 90.0146C101.528 90.0146 101.364 89.8296 101.364 89.4595C101.364 89.3008 101.56 89.0153 101.946 88.6029C102.306 88.217 102.697 87.7675 103.115 87.2547L103.11 87.26ZM102.37 83.5642C102.317 83.5008 102.295 83.4373 102.295 83.3686C102.295 83.0355 102.465 82.8663 102.798 82.8663C102.941 82.8663 103.195 82.9985 103.565 83.2576C103.951 83.5272 104.147 83.7546 104.147 83.9396C104.147 84.2674 103.972 84.4313 103.628 84.4313C103.496 84.4313 103.338 84.3573 103.163 84.204C103.094 84.1458 102.909 84.0031 102.597 83.7757C102.496 83.7017 102.422 83.633 102.37 83.5695V83.5642ZM105.935 85.6844H108.204V84.8807H106.178C106.02 84.8807 105.94 84.96 105.94 85.1187V85.6844H105.935ZM105.935 86.4669V87.3499H108.204V86.4669H105.935ZM106.353 89.0999H108.204V88.1324H105.935V88.6611C105.935 88.9625 106.072 89.1105 106.353 89.0999Z" fill="#231815"></path>
    <path d="M130.337 93.3032C130.337 93.6205 130.141 93.7791 129.745 93.7791H119.641C119.239 93.7791 119.038 93.6205 119.038 93.3032C119.038 92.986 119.239 92.8274 119.641 92.8274H124.402V89.7661H121.365C120.969 89.7661 120.773 89.6075 120.773 89.2902C120.773 88.973 120.969 88.825 121.365 88.825H124.402V86.2289H121.339C121.053 87.2547 120.72 88.1059 120.344 88.7827C120.186 89.0787 120.027 89.3008 119.874 89.4488C119.72 89.6022 119.577 89.6762 119.451 89.6762C119.281 89.6762 119.16 89.6339 119.08 89.5493C119.001 89.4647 118.959 89.3325 118.959 89.1475C118.959 89.0312 119.048 88.8302 119.223 88.5447C119.853 87.519 120.376 85.9963 120.799 83.9766C120.873 83.5959 121.059 83.4109 121.355 83.4109C121.709 83.4109 121.884 83.543 121.884 83.8127L121.847 84.1405L121.593 85.272H124.402V83.432C124.402 83.0355 124.576 82.8398 124.931 82.8398C125.285 82.8398 125.449 83.0355 125.449 83.432V85.272H129.226C129.628 85.272 129.829 85.4306 129.829 85.7478C129.829 86.065 129.628 86.2289 129.226 86.2289H125.449V88.825H128.613C129.009 88.825 129.205 88.9783 129.205 89.2902C129.205 89.6022 129.009 89.7661 128.613 89.7661H125.449V92.8274H129.745C130.141 92.8274 130.337 92.986 130.337 93.3032Z" fill="#231815"></path>
    <path d="M137.214 93.6046C137.214 93.2451 137.383 93.0653 137.732 93.0653H138.198C138.494 93.0653 138.647 92.9067 138.663 92.5895V89.9353L137.759 90.2102L137.431 90.2737C137.129 90.2737 136.976 90.0939 136.976 89.7344C136.976 89.433 137.235 89.2268 137.759 89.1158L138.663 88.8779V86.1444H137.494C137.177 86.1444 137.013 85.9752 137.013 85.6421C137.013 85.309 137.172 85.161 137.494 85.161H138.663V83.2364C138.663 82.8927 138.833 82.7183 139.166 82.7183C139.499 82.7183 139.684 82.8927 139.684 83.2364V85.161H140.404C140.732 85.161 140.896 85.3249 140.896 85.6527C140.896 85.8219 140.853 85.9435 140.774 86.0228C140.695 86.1021 140.573 86.1444 140.404 86.1444H139.684V88.6135L140.166 88.4496C140.393 88.3756 140.541 88.3386 140.605 88.3386C140.88 88.3386 141.023 88.5078 141.023 88.8408C141.023 89.0418 140.901 89.1898 140.658 89.2797L139.69 89.6181V92.8908C139.721 93.3297 139.631 93.6522 139.414 93.8637C139.198 94.0805 138.864 94.1703 138.42 94.1492H137.738C137.394 94.1492 137.219 93.9694 137.219 93.6099L137.214 93.6046ZM140.224 93.5517C140.224 93.2557 140.457 93.0547 140.917 92.9331C141.948 92.6741 142.858 92.2722 143.636 91.7382C143.191 91.2782 142.826 90.7865 142.541 90.2631C142.382 89.9617 142.26 89.7132 142.181 89.5123C142.102 89.3167 142.059 89.1475 142.059 89.0047C142.059 88.7034 142.218 88.55 142.535 88.55C142.795 88.55 142.98 88.7245 143.091 89.0682C143.345 89.8296 143.789 90.5116 144.424 91.1091C144.895 90.6808 145.307 90.1732 145.657 89.5863C146.074 88.8884 146.286 88.4707 146.286 88.328C146.286 88.1958 146.201 88.1271 146.032 88.1271H141.89C141.493 88.1271 141.298 87.9685 141.298 87.6512C141.298 87.334 141.493 87.1859 141.89 87.1859H143.869V85.5258H141.525C141.113 85.5258 140.906 85.3566 140.906 85.0235C140.906 84.6904 141.113 84.5318 141.525 84.5318H143.869V83.3845C143.869 82.9721 144.043 82.7658 144.387 82.7658C144.731 82.7658 144.889 82.9721 144.889 83.3845V84.5318H147.561C147.958 84.5318 148.153 84.701 148.153 85.0341C148.153 85.3672 147.958 85.5258 147.561 85.5258H144.889V87.1859H146.566C146.894 87.1859 147.138 87.2388 147.291 87.3446C147.444 87.4503 147.524 87.6089 147.524 87.831C147.524 88.1694 147.265 88.7827 146.741 89.6815C146.201 90.6068 145.694 91.2941 145.217 91.7435C145.858 92.1876 146.677 92.5525 147.688 92.838C147.942 92.9067 148.132 92.9913 148.259 93.1023C148.391 93.2134 148.455 93.3297 148.455 93.4566C148.455 93.8372 148.28 94.0223 147.926 94.0223C147.693 94.0223 147.191 93.8743 146.429 93.5835C145.704 93.298 145.032 92.9226 144.413 92.4626C143.652 92.9913 142.948 93.3878 142.308 93.6469C141.536 93.9589 141.012 94.1122 140.732 94.1122C140.388 94.1122 140.213 93.9271 140.213 93.557L140.224 93.5517Z" fill="#231815"></path>
    <path d="M156.945 93.6416C156.945 93.3138 157.125 93.1499 157.485 93.1499H157.823C157.977 93.1499 158.088 93.1076 158.167 93.023C158.246 92.9384 158.289 92.8168 158.289 92.6582V89.8507H156.728C156.696 91.146 156.559 92.1718 156.326 92.9331C156.093 93.6892 155.829 94.0646 155.533 94.0646C155.199 94.0646 155.03 93.9007 155.03 93.5729C155.03 93.4883 155.162 93.1499 155.422 92.5524C155.554 92.2405 155.665 91.7858 155.744 91.1883C155.824 90.5909 155.866 89.8665 155.866 89.0153V84.2039C155.866 83.8444 155.951 83.5853 156.125 83.4373C156.294 83.284 156.569 83.21 156.94 83.21H158.172C158.548 83.21 158.823 83.2787 158.992 83.4214C159.162 83.5642 159.236 83.8127 159.22 84.1669V92.8908C159.22 93.3297 159.125 93.6469 158.929 93.8478C158.733 94.0487 158.426 94.1439 157.998 94.1227H157.495C157.136 94.1227 156.956 93.9588 156.956 93.631L156.945 93.6416ZM158.294 84.5899C158.294 84.3044 158.141 84.1511 157.839 84.1352H157.173C156.956 84.1352 156.823 84.2304 156.781 84.426C156.765 84.5159 156.755 85.0658 156.755 86.0756H158.294V84.5899ZM158.294 88.9466V86.9797H156.755V88.9466H158.294ZM164.933 93.8425C164.478 93.6733 164.086 93.5094 163.764 93.3508C163.467 93.208 163.14 93.0018 162.769 92.7322C162.187 93.1182 161.616 93.4301 161.045 93.6733C160.426 93.9324 160.003 94.0646 159.786 94.0646C159.474 94.0646 159.32 93.9007 159.32 93.5729C159.32 93.3297 159.553 93.134 160.024 92.9913C160.711 92.7904 161.378 92.4731 162.029 92.0449C161.584 91.5426 161.256 91.1143 161.039 90.7654C160.828 90.4164 160.717 90.115 160.717 89.8665C160.717 89.6498 160.886 89.5387 161.219 89.5387C161.309 89.5387 161.394 89.581 161.463 89.6603C161.531 89.7396 161.611 89.8718 161.695 90.0569C162.013 90.7178 162.362 91.2095 162.743 91.532C162.944 91.3787 163.124 91.2201 163.282 91.0456C163.441 90.8711 163.642 90.6226 163.885 90.2948C164.287 89.7502 164.488 89.433 164.488 89.3484C164.488 89.2215 164.404 89.1581 164.235 89.1581H160.341C159.966 89.1581 159.775 89.0047 159.775 88.6928C159.775 88.3808 159.966 88.2381 160.341 88.2381H164.689C165.388 88.2381 165.742 88.4549 165.758 88.8778C165.758 89.0206 165.705 89.2109 165.594 89.4436C165.467 89.7026 165.298 89.9934 165.076 90.3107C164.864 90.612 164.621 90.9346 164.34 91.2676C164.06 91.6007 163.801 91.8915 163.568 92.1242C164.15 92.4784 164.975 92.7798 166.049 93.0283C166.35 93.1023 166.504 93.2715 166.504 93.5306C166.504 93.8901 166.329 94.0699 165.985 94.0699C165.758 94.0699 165.404 93.9853 164.927 93.8161L164.933 93.8425ZM159.527 87.4239C159.527 87.2282 159.601 87.0749 159.754 86.9586C160.14 86.6572 160.368 86.34 160.436 86.0122C160.51 85.6579 160.547 85.0182 160.547 84.0876C160.547 83.4902 160.87 83.1941 161.516 83.1941H163.378C164.018 83.1941 164.335 83.506 164.335 84.1246V86.2395C164.335 86.4986 164.488 86.6308 164.801 86.6308C165.134 86.6308 165.335 86.5832 165.393 86.4933C165.462 86.377 165.499 86.1285 165.504 85.7531C165.515 85.3671 165.657 85.1715 165.943 85.1715C166.261 85.1715 166.419 85.3248 166.419 85.6368C166.419 86.5938 166.276 87.1542 165.991 87.3128C165.763 87.4397 165.33 87.5032 164.679 87.5032C164.208 87.5032 163.864 87.445 163.647 87.3234C163.43 87.2018 163.319 87.0167 163.319 86.7735V84.5688C163.319 84.4154 163.288 84.3044 163.219 84.2357C163.15 84.1669 163.044 84.1299 162.891 84.1299H161.923C161.78 84.1299 161.68 84.1669 161.621 84.2357C161.563 84.3097 161.531 84.426 161.531 84.5952C161.531 85.0499 161.516 85.3989 161.484 85.6474C161.452 85.8959 161.399 86.1285 161.33 86.3453C161.256 86.6202 161.066 86.9533 160.764 87.3393C160.51 87.6565 160.246 87.8204 159.971 87.8204C159.669 87.8204 159.516 87.6882 159.516 87.4291L159.527 87.4239Z" fill="#231815"></path>
    <path d="M174.804 93.6205V87.6512H174.777C174.444 88.2487 174.179 88.6664 173.994 88.9096C173.809 89.1528 173.65 89.2744 173.513 89.2744C173.375 89.2744 173.275 89.2374 173.196 89.1687C173.121 89.0999 173.084 88.9942 173.084 88.862C173.084 88.7721 173.137 88.6294 173.238 88.439C173.338 88.2487 173.502 87.9738 173.73 87.6142C174.105 87.0168 174.481 86.3347 174.851 85.5628C175.163 84.9072 175.47 84.1405 175.772 83.2576C175.883 82.9298 176.084 82.7659 176.375 82.7659C176.708 82.7659 176.877 82.9245 176.877 83.2417C176.877 83.3686 176.777 83.6488 176.576 84.0877L176.311 84.6798C176.052 85.2826 175.883 85.658 175.809 85.8007V93.6205C175.809 94.0329 175.639 94.2391 175.306 94.2391C174.973 94.2391 174.804 94.0329 174.804 93.6205ZM176.179 93.6311C176.179 93.4196 176.338 93.2557 176.655 93.1288C178.194 92.5155 178.972 91.1672 178.999 89.0894H177.941C177.623 89.0894 177.459 88.936 177.459 88.6241C177.459 88.2963 177.634 88.1324 177.988 88.1324H182.321C182.696 88.1324 182.982 88.2117 183.172 88.3703C183.363 88.5289 183.447 88.7616 183.431 89.0629L183.32 91.1038C183.262 92.2617 183.082 93.0495 182.781 93.4725C182.506 93.869 181.834 94.0646 180.765 94.0646C180.353 94.0646 180.146 93.8902 180.146 93.5359C180.146 93.3614 180.221 93.224 180.374 93.1182C180.527 93.0178 180.739 92.9649 181.014 92.9543C181.316 92.9437 181.559 92.9014 181.739 92.8274C181.919 92.7534 182.024 92.6477 182.061 92.5102C182.252 91.8387 182.352 90.8553 182.352 89.5652C182.352 89.248 182.199 89.0894 181.887 89.0894H180.035C179.982 90.1468 179.818 91.0245 179.533 91.7224C179.237 92.4203 178.771 92.9966 178.136 93.446C177.48 93.906 176.999 94.1386 176.687 94.1386C176.354 94.1386 176.184 93.9695 176.184 93.6364L176.179 93.6311ZM176.216 88.1535C176.216 88.0954 176.237 88.0266 176.28 87.9473C176.322 87.868 176.385 87.7834 176.47 87.7041C176.999 87.1754 177.475 86.2607 177.904 84.9601C177.972 84.7486 178.046 84.5952 178.136 84.5001C178.226 84.4049 178.337 84.3573 178.47 84.3573C178.829 84.3573 179.009 84.5054 179.009 84.7962C179.009 85.1663 178.713 85.8959 178.126 86.9851C177.539 88.0954 177.073 88.6452 176.729 88.6452C176.385 88.6452 176.211 88.4813 176.211 88.1535H176.216ZM182.527 87.3076C181.887 86.2924 181.522 85.3672 181.432 84.5371C181.39 84.2357 181.231 84.0824 180.956 84.0718H180.316C179.914 84.0718 179.713 83.9079 179.713 83.5801C179.713 83.2523 179.914 83.0884 180.316 83.0884H181.3C181.67 83.0884 181.94 83.173 182.114 83.3475C182.284 83.5219 182.395 83.7916 182.437 84.1617C182.511 84.9019 182.717 85.5681 183.051 86.1708C183.384 86.7736 183.828 87.2917 184.394 87.7358C184.563 87.8627 184.648 88.0055 184.648 88.1641C184.648 88.5236 184.458 88.7034 184.082 88.7034C183.643 88.7034 183.135 88.2381 182.543 87.3076H182.527Z" fill="#231815"></path>
    <path d="M202.623 84.5794C202.623 84.8966 202.422 85.0552 202.02 85.0552H195.355L194.752 86.3506H199.878C200.322 86.3506 200.645 86.4458 200.846 86.6414C201.047 86.837 201.137 87.149 201.11 87.5878V92.8274C201.179 93.7685 200.74 94.2127 199.798 94.1598H198.703C198.307 94.1598 198.111 93.9853 198.111 93.6311C198.111 93.2768 198.307 93.0918 198.703 93.0918H199.497C199.693 93.0918 199.835 93.0389 199.936 92.9332C200.036 92.8274 200.089 92.6688 200.089 92.4626V91.5585H194.762V93.5623C194.762 93.9747 194.588 94.1809 194.244 94.1809C193.9 94.1809 193.726 93.9747 193.726 93.5623V88.0214L193.688 88.0108C192.689 89.3537 192.012 90.0252 191.662 90.0252C191.335 90.0252 191.171 89.8402 191.171 89.47C191.171 89.285 191.287 89.0894 191.525 88.8779C192.768 87.7781 193.699 86.5092 194.323 85.0605H191.943C191.541 85.0605 191.34 84.8966 191.34 84.5688C191.34 84.241 191.541 84.0877 191.943 84.0877H194.688L194.889 83.3475C194.99 82.9615 195.18 82.7659 195.455 82.7659C195.852 82.7659 196.048 82.9351 196.048 83.2682C196.048 83.3792 196.027 83.4902 195.99 83.6065C195.953 83.7229 195.889 83.8815 195.804 84.0824H202.015C202.417 84.0824 202.618 84.2463 202.618 84.5741L202.623 84.5794ZM194.762 88.4813H200.089V87.8416C200.089 87.6724 200.042 87.5402 199.952 87.445C199.862 87.3499 199.724 87.3023 199.55 87.3023H195.08C194.868 87.3023 194.762 87.4133 194.762 87.6301V88.4866V88.4813ZM194.762 89.4119V90.6227H200.089V89.4119H194.762Z" fill="#231815"></path>
    <path d="M209.786 93.668V84.352C209.786 83.9554 209.875 83.6699 210.055 83.4902C210.235 83.3104 210.516 83.2258 210.891 83.247H212.505C213.187 83.247 213.525 83.469 213.525 83.9132C213.525 84.2145 213.203 85.0393 212.557 86.3928C212.356 86.8052 212.256 87.0855 212.256 87.2388C212.256 87.3657 212.367 87.5666 212.594 87.8415C212.811 88.1006 212.986 88.4178 213.113 88.7879C213.224 89.1158 213.277 89.47 213.277 89.8454C213.277 91.0985 212.711 91.7223 211.579 91.7223C211.193 91.7223 210.997 91.532 210.997 91.1566C210.997 90.9557 211.066 90.8129 211.198 90.7284C211.251 90.6966 211.457 90.6543 211.827 90.6015C212.182 90.5592 212.356 90.2578 212.356 89.6973C212.356 89.0259 212.076 88.3332 211.51 87.6195C211.42 87.5032 211.372 87.3657 211.372 87.2177C211.372 87.0855 211.547 86.6255 211.901 85.843C212.245 85.0816 212.42 84.6111 212.42 84.4472C212.42 84.2621 212.293 84.1722 212.044 84.1722H211.187C211.055 84.1722 210.949 84.2092 210.87 84.2833C210.796 84.3573 210.754 84.463 210.743 84.6005V93.6786C210.743 94.054 210.584 94.2443 210.262 94.2443C209.939 94.2443 209.786 94.054 209.786 93.6786V93.668ZM212.557 93.4513C212.557 93.3244 212.616 93.2133 212.737 93.1129C212.859 93.0124 213.039 92.9331 213.272 92.875L213.938 92.6635V84.4524C213.938 84.04 214.033 83.744 214.229 83.5589C214.446 83.358 214.747 83.2575 215.134 83.2575H218.747C219.159 83.2575 219.477 83.358 219.704 83.5589C219.894 83.7281 219.995 84.0242 219.995 84.4524V87.4714C219.995 87.8733 219.9 88.1958 219.704 88.439C219.471 88.6399 219.149 88.7351 218.747 88.7298H217.287C217.361 89.4436 217.556 90.0886 217.868 90.6702L218.032 90.5592C218.265 90.39 218.487 90.2155 218.688 90.0304C218.889 89.8454 219.159 89.5863 219.492 89.2479C219.667 89.0735 219.815 88.9836 219.932 88.9836C220.275 88.9836 220.45 89.1633 220.45 89.5229C220.45 89.6551 220.27 89.8771 219.91 90.1785C219.551 90.4799 219.016 90.8552 218.313 91.2994L218.302 91.3258C218.842 91.9867 219.529 92.5154 220.371 92.912C220.614 93.023 220.736 93.1869 220.736 93.4142C220.736 93.7844 220.545 93.9694 220.17 93.9694C219.984 93.9694 219.656 93.8055 219.186 93.4777C217.498 92.3039 216.578 90.7178 216.424 88.7298H214.89V92.3568L216.541 91.7541L216.652 91.7276C216.927 91.7276 217.07 91.8915 217.07 92.2193C217.07 92.3515 217.022 92.4573 216.932 92.5366C216.779 92.6529 216.435 92.8168 215.885 93.0283C215.53 93.1605 215.271 93.2662 215.102 93.3402C214.985 93.3878 214.848 93.446 214.684 93.5094C214.525 93.5729 214.34 93.6416 214.129 93.7156C213.589 93.9165 213.229 94.017 213.044 94.017C212.716 94.017 212.552 93.8267 212.552 93.4513H212.557ZM219.032 84.6904C219.032 84.3467 218.858 84.1722 218.514 84.1722H215.403C215.06 84.1722 214.885 84.3467 214.885 84.6904V85.5205H219.027V84.6904H219.032ZM219.032 87.297V86.4299H214.89V87.8151H218.519C218.863 87.8151 219.038 87.6406 219.038 87.297H219.032Z" fill="#231815"></path>
    <path d="M227.316 88.9836C227.316 88.8514 227.581 88.4972 228.11 87.9262C228.792 87.1965 229.4 86.1497 229.951 84.7908C230.051 84.5476 230.152 84.3626 230.252 84.241C230.353 84.1194 230.469 84.0559 230.606 84.0559C230.934 84.0559 231.098 84.204 231.098 84.4948C231.098 84.6692 231.024 84.9442 230.871 85.3143C230.718 85.6844 230.495 86.1285 230.204 86.6467C229.564 87.7887 228.935 88.6611 228.316 89.2638C228.205 89.3643 228.115 89.4383 228.041 89.4859C227.967 89.5335 227.887 89.5546 227.813 89.5546C227.485 89.5546 227.321 89.359 227.321 88.973L227.316 88.9836ZM236.838 93.5517L236.473 92.9226L236.272 92.949L235.806 93.0124C235.653 93.0283 235.225 93.0812 234.521 93.1711C233.817 93.2609 233.008 93.3455 232.103 93.4301L228.554 93.7315C228.353 93.7474 228.2 93.7051 228.094 93.6046C227.988 93.5042 227.935 93.3561 227.935 93.1658C227.935 92.9754 227.999 92.8433 228.126 92.7481C228.268 92.6582 228.623 92.6106 229.183 92.6106L229.612 92.6C230.331 91.2465 230.966 89.7132 231.5 87.9896C231.59 87.6777 231.786 87.5243 232.082 87.5243C232.193 87.5243 232.326 87.5719 232.484 87.6777C232.585 87.8046 232.638 87.9156 232.638 88.016C232.638 88.0583 232.627 88.1112 232.601 88.1747C232.574 88.2381 232.558 88.2804 232.548 88.3068C231.945 90.0886 231.315 91.5056 230.659 92.563L235.976 92.1612C235.457 91.4421 235.05 90.9187 234.764 90.6015C234.468 90.2843 234.325 90.0569 234.325 89.9194C234.325 89.6445 234.484 89.5017 234.807 89.5017C235.05 89.5017 235.473 89.8771 236.081 90.6226C236.653 91.31 237.15 91.9497 237.568 92.5366C237.901 92.9966 238.07 93.3403 238.07 93.5676C238.07 93.9113 237.875 94.0858 237.489 94.0858C237.272 94.0858 237.055 93.9113 236.848 93.557L236.838 93.5517ZM237.388 89.0999C237.065 88.8514 236.69 88.4707 236.261 87.9579C235.415 86.9427 234.881 85.8959 234.664 84.812C234.59 84.4102 234.415 84.204 234.145 84.1934H232.849C232.463 84.1934 232.267 84.0242 232.267 83.6911C232.267 83.358 232.463 83.1994 232.849 83.1994H234.436C235.039 83.1994 235.399 83.5166 235.505 84.1458C235.833 85.9276 236.7 87.2705 238.113 88.1747C238.525 88.4337 238.732 88.6769 238.732 88.9043C238.732 89.285 238.562 89.47 238.229 89.47C237.996 89.47 237.716 89.3484 237.393 89.0999H237.388Z" fill="#231815"></path>
    <path d="M253.03 94.0276C252.924 93.9377 252.872 93.8003 252.872 93.6046C252.872 93.2345 253.083 93.0495 253.512 93.0495H254.469C254.887 93.0495 255.099 92.8433 255.099 92.4309V85.0658C255.099 84.6111 254.882 84.3838 254.443 84.3838H246.005C245.81 84.3838 245.667 84.3467 245.577 84.2727C245.487 84.1987 245.439 84.0771 245.439 83.9079C245.439 83.7387 245.487 83.6171 245.577 83.5378C245.667 83.4585 245.81 83.4162 246.005 83.4162H254.771C255.241 83.4162 255.591 83.5272 255.818 83.744C256.051 83.9608 256.162 84.3097 256.146 84.7909V92.7375C256.204 93.7421 255.723 94.218 254.697 94.1598H253.512C253.295 94.1598 253.131 94.1175 253.025 94.0276H253.03ZM245.894 86.266C245.894 85.9382 246.09 85.7743 246.487 85.7743H253.073C253.469 85.7743 253.665 85.9382 253.665 86.266C253.665 86.5938 253.469 86.7577 253.073 86.7577H246.487C246.09 86.7577 245.894 86.5938 245.894 86.266ZM246.989 92.0978C246.815 91.9286 246.735 91.6642 246.762 91.2941V89.0048C246.762 88.6188 246.846 88.3386 247.016 88.1694C247.185 87.9949 247.455 87.9262 247.836 87.9473H251.655C252.03 87.9473 252.306 88.0319 252.48 88.2011C252.655 88.3703 252.723 88.6294 252.702 88.9836V91.2994C252.702 91.6854 252.618 91.9656 252.443 92.1348C252.268 92.3093 251.999 92.378 251.628 92.3569H247.836C247.449 92.3569 247.169 92.2723 246.989 92.1031V92.0978ZM251.639 90.9029V89.3802C251.639 89.0629 251.475 88.899 251.147 88.8884H248.301C248 88.8884 247.841 89.0524 247.82 89.3802V90.9029C247.82 91.2148 247.978 91.3787 248.301 91.3946H251.147C251.464 91.3946 251.628 91.2307 251.639 90.9029Z" fill="#231815"></path>
    <path d="M47.9414 62.8342C51.0959 59.6813 51.0959 54.5694 47.9414 51.4165C44.7869 48.2636 39.6724 48.2636 36.5179 51.4165C33.3634 54.5694 33.3634 59.6813 36.5179 62.8342C39.6724 65.9872 44.7869 65.9872 47.9414 62.8342Z" fill="#1E5294"></path>
    <path d="M26.7614 86.5251V56.7317C26.7614 52.4174 28.5864 48.526 31.5011 45.7819C29.3429 41.1239 26.9889 36.0482 24.9999 31.6968C23.9102 32.4317 22.8681 33.2354 21.8842 34.1078C15.621 39.6435 11.6694 47.7329 11.6694 56.737V103C11.6694 103 26.7614 94.9635 26.7614 86.5251Z" fill="url(#paint0_linear_20252_230)"></path>
    <path d="M41.8534 41.6526C50.1744 41.6526 57.5326 48.4784 57.5326 56.7951C57.5326 65.1119 51.5021 70.0554 47.4818 71.6628C43.4616 73.2701 38.2352 72.8682 36.225 71.6628C36.627 82.9139 32.2047 84.9231 32.2047 84.9231C34.6169 85.547 39.2455 86.9058 41.8481 86.9058C58.5165 86.9058 72.0321 73.397 72.0321 56.737C72.0321 40.077 58.5165 26.5682 41.8481 26.5682C39.0974 26.5682 36.4313 26.9436 33.8975 27.6309C35.9129 32.0405 38.2563 37.095 40.3987 41.7319C40.8748 41.6843 41.3562 41.6526 41.8481 41.6526H41.8534Z" fill="url(#paint1_linear_20252_230)"></path>
    <path d="M38.9757 51.7512C37.8014 49.2027 36.4631 46.3053 35.0665 43.2758C32.9717 38.7446 30.7447 33.9333 28.7134 29.566C27.7983 27.6045 26.9254 25.7275 26.1267 24.0198C25.8939 23.5228 25.2803 23.0681 24.7407 22.8672C19.6836 20.9532 14.6053 19.0974 9.52705 17.2257C9.17792 17.0988 8.80763 17.0142 8.42676 16.9032C7.9348 18.2197 7.46929 19.4463 6.98792 20.7364C7.34763 20.9003 7.64386 21.0589 7.95596 21.1753C12.2249 22.7561 16.4726 24.3793 20.768 25.8703C22.0852 26.3303 22.8787 27.0335 23.4553 28.3183C23.9314 29.3704 24.4498 30.5125 24.9946 31.7021C26.9783 36.0534 29.3376 41.1292 31.4959 45.7872C32.6649 48.3145 33.7811 50.7149 34.7439 52.798C34.9554 53.2527 35.167 53.7127 35.3892 54.2044C36.7593 53.5752 37.9707 53.0148 39.2191 52.4385C39.1133 52.1477 39.0604 51.9415 38.9705 51.7512H38.9757Z" fill="#1E5294"></path>
    <path d="M20.6146 31.4641C21.0748 30.3115 21.5774 29.069 22.0112 27.9799C16.7848 26.0342 11.6483 24.1255 6.74459 22.3014C6.21561 23.4646 5.65488 24.6912 5.18408 25.7222C10.4211 27.6679 15.5522 29.5766 20.6146 31.4641Z" fill="#1E5294"></path>
    <path d="M43.6097 48.6634C42.6522 46.5908 41.5572 44.2169 40.404 41.7266C38.2564 37.095 35.9182 32.0352 33.9028 27.6256C33.2521 26.1981 32.6279 24.8393 32.0672 23.5862C31.7763 22.9412 31.7551 21.9895 31.9879 21.3127C33.5537 16.8609 35.22 12.4408 36.8493 8.01012C37.0185 7.54484 37.1561 7.069 37.32 6.55614C35.9711 6.06972 34.765 5.63088 33.4532 5.15503C33.3262 5.39824 33.2363 5.54099 33.1781 5.69961C31.1838 11.0926 29.1737 16.4802 27.2376 21.8943C27.0524 22.4072 27.2005 23.158 27.4439 23.6867C28.195 25.331 29.0202 27.1339 29.8931 29.0268C31.8979 33.3887 34.1355 38.2265 36.2303 42.747C37.5528 45.6074 38.8224 48.3409 39.928 50.7466C40.1025 51.122 40.3141 51.4762 40.5204 51.8569C41.8006 51.2647 42.9855 50.7201 44.2868 50.1227C44.0382 49.5834 43.8266 49.1287 43.615 48.6687L43.6097 48.6634Z" fill="#1E5294"></path>
    <path d="M36.3679 24.2365C38.341 18.9229 40.2876 13.6886 42.229 8.45952C41.1076 8.03126 39.8856 7.56598 38.8329 7.16415C36.8598 12.4672 34.9131 17.7121 33.0088 22.8354C34.1408 23.306 35.3575 23.8083 36.3731 24.2312L36.3679 24.2365Z" fill="#1E5294"></path>
    <path d="M35.4075 0.315668L34.1717 3.66394C34.0786 3.91598 34.2077 4.19568 34.4598 4.28866L42.4501 7.23495C42.7023 7.32793 42.9821 7.19899 43.0751 6.94695L44.311 3.59867C44.404 3.34663 44.275 3.06693 44.0229 2.97395L36.0326 0.0276669C35.7804 -0.0653153 35.5006 0.0636287 35.4075 0.315668Z" fill="#DA9127"></path>
    <path d="M2.97644 15.2616L0.0286735 23.2479C-0.0643556 23.4999 0.0646498 23.7796 0.316816 23.8726L3.66678 25.1078C3.91895 25.2008 4.19878 25.0719 4.29181 24.8198L7.23958 16.8336C7.33261 16.5815 7.2036 16.3018 6.95144 16.2089L3.60147 14.9736C3.34931 14.8806 3.06947 15.0096 2.97644 15.2616Z" fill="#DA9127"></path>
    <path d="M130.263 50.662V56.2347C130.263 57.0225 129.755 57.3609 128.967 57.1335C128.01 56.9062 127.163 56.7951 126.375 56.7951C123.333 56.7951 121.588 58.5981 121.249 62.0295V73.4022C121.249 74.1319 120.852 74.5284 120.122 74.5284H113.928C113.198 74.5284 112.801 74.1319 112.801 73.4022V49.134C116.181 49.8372 118.604 51.5291 119.953 54.0881C121.725 50.4822 124.518 49.134 127.502 49.134C128.121 49.134 128.798 49.245 129.358 49.3613C129.977 49.5305 130.258 50.0381 130.258 50.6567L130.263 50.662Z" fill="#1E5294"></path>
    <path d="M160.96 61.5854V62.6005C160.96 63.3301 160.563 63.7267 159.833 63.7267H141.694C141.922 67.1634 143.89 69.4157 147.048 69.4157C149.529 69.4157 151.158 68.2895 151.835 66.7668C152.115 66.1482 152.454 65.8098 153.073 65.8098H159.326C160.114 65.8098 160.563 66.3174 160.283 67.1052C158.31 72.7361 153.411 75.4378 147.212 75.4378C138.647 75.4378 132.733 70.3727 132.733 62.1511C132.733 53.9295 138.875 48.8062 147.212 48.8062C154.76 48.8062 160.955 53.369 160.955 61.5854H160.96ZM152.004 59.1638C151.835 56.4621 149.92 54.5481 146.937 54.5481C143.953 54.5481 142.287 56.4621 141.811 59.1638H152.004Z" fill="#1E5294"></path>
    <path d="M164.166 62.0876C164.166 54.712 169.122 48.8009 177.406 48.8009C184.955 48.8009 189.912 52.9672 190.869 58.4871C190.98 59.2167 190.53 59.6714 189.8 59.6714H183.606C182.929 59.6714 182.59 59.333 182.421 58.6562C181.913 56.5149 180.564 55.3359 178.025 55.3359C174.195 55.3359 172.619 58.8254 172.619 62.0929C172.619 65.7517 174.195 68.9081 178.025 68.9081C180.559 68.9081 181.913 67.7238 182.421 65.5878C182.59 64.911 182.929 64.5726 183.606 64.5726H189.8C190.53 64.5726 190.985 64.911 190.869 65.4715C190.081 71.1023 185.066 75.4378 177.406 75.4378C169.128 75.4378 164.166 69.5267 164.166 62.0929V62.0876Z" fill="#1E5294"></path>
    <path d="M207.474 66.4813C207.363 65.7517 207.812 65.297 208.542 65.297H214.684C215.361 65.297 215.7 65.6935 215.869 66.365C216.546 69.0139 219.646 69.5743 221.164 69.5743C223.814 69.5743 225.052 68.5592 225.052 67.1528C225.052 62.5371 208.437 66.8144 208.437 56.7952C208.437 52.0102 212.547 48.8009 220.212 48.8009C226.803 48.8009 231.141 51.1643 232.379 56.0074C232.548 56.7952 232.151 57.2446 231.363 57.2446H225.338C224.719 57.2446 224.322 56.9062 224.042 56.2876C223.365 54.823 222.185 54.0352 219.762 54.0352C217.789 54.0352 216.948 54.823 216.948 55.669C216.948 60.0045 233.564 56.1184 233.564 66.365C233.564 72.1069 228.945 75.4325 221 75.4325C213.848 75.4325 208.548 72.7308 207.479 66.4813H207.474Z" fill="#1E5294"></path>
    <path d="M264.869 61.5854V62.6005C264.869 63.3301 264.472 63.7267 263.742 63.7267H245.603C245.825 67.1634 247.799 69.4157 250.957 69.4157C253.438 69.4157 255.067 68.2895 255.744 66.7668C256.024 66.1482 256.363 65.8098 256.982 65.8098H263.234C264.023 65.8098 264.472 66.3174 264.192 67.1052C262.219 72.7361 257.32 75.4378 251.121 75.4378C242.556 75.4378 236.642 70.3727 236.642 62.1511C236.642 53.9295 242.784 48.8062 251.121 48.8062C258.669 48.8062 264.864 53.369 264.864 61.5854H264.869ZM255.913 59.1638C255.744 56.4621 253.829 54.5481 250.846 54.5481C247.862 54.5481 246.196 56.4621 245.72 59.1638H255.913Z" fill="#1E5294"></path>
    <path d="M196.323 74.5337C195.593 74.5337 195.196 74.1372 195.196 73.4075V49.1393C200.661 50.2655 203.644 54.0352 203.644 59.8353V73.4023C203.644 74.1319 203.247 74.5284 202.517 74.5284H196.323V74.5337Z" fill="#1E5294"></path>
    <path d="M199.83 46.8288C202.389 46.8288 204.464 44.7551 204.464 42.1972C204.464 39.6392 202.389 37.5656 199.83 37.5656C197.271 37.5656 195.196 39.6392 195.196 42.1972C195.196 44.7551 197.271 46.8288 199.83 46.8288Z" fill="#1E5294"></path>
    <path d="M96.0481 34.4726C88.4413 34.4726 82.268 40.5846 82.1622 48.1559C82.1622 48.1823 82.1622 48.2034 82.1622 48.2246V75.5277C87.8859 74.3487 91.0069 70.3991 91.0069 64.3294V61.2893C92.5727 61.8973 94.2707 62.2357 96.0481 62.2357C103.718 62.2357 109.939 56.0179 109.939 48.3515C109.939 40.685 103.718 34.4673 96.0481 34.4673V34.4726ZM96.0481 54.1886C92.8266 54.1886 90.2134 51.5767 90.2134 48.3568C90.2134 45.1369 92.8266 42.525 96.0481 42.525C99.2697 42.525 101.883 45.1369 101.883 48.3568C101.883 51.5767 99.2697 54.1886 96.0481 54.1886Z" fill="#1E5294"></path>
    <path d="M369 64.3294C369 58.1434 363.107 53.1311 355.844 53.1311C354.157 53.1311 352.548 53.406 351.067 53.8978V51.4445C351.067 46.5485 348.105 43.3604 342.688 42.4087V64.4299C342.688 64.4299 342.688 64.4669 342.688 64.488C342.789 70.6 348.639 75.5277 355.844 75.5277C363.049 75.5277 369 70.5154 369 64.3294ZM360.467 64.377C360.467 66.9307 358.394 69.0033 355.839 69.0033C353.284 69.0033 351.21 66.9307 351.21 64.377C351.21 61.8233 353.284 59.7507 355.839 59.7507C358.394 59.7507 360.467 61.8233 360.467 64.377Z" fill="#1E5294"></path>
    <path d="M309.775 55.1138C309.494 53.8449 308.96 52.7769 308.161 51.9098C307.172 50.8417 306.066 50.091 304.855 49.6627C303.638 49.2344 302.406 49.0229 301.157 49.0229C299.28 49.0229 297.581 49.3666 296.053 50.054C294.609 50.7413 293.402 51.8146 292.429 53.2844C291.874 52.0631 291.059 51.0638 289.98 50.2866C288.642 49.4459 286.891 49.0282 284.717 49.0282C284.071 49.0282 283.415 49.0705 282.765 49.1498C279.808 49.171 277.052 50.5298 275.295 54.104C273.952 51.5608 271.55 49.8795 268.207 49.1657C268.165 49.1393 268.143 49.1287 268.143 49.1287V73.4181C268.143 74.1477 268.54 74.5443 269.27 74.5443H275.544C275.607 74.5443 275.666 74.5337 275.724 74.5284C275.724 74.5284 275.724 74.5284 275.729 74.5284C276.353 74.4385 276.829 73.9098 276.829 73.2595V61.6911C276.829 61.1835 276.866 60.7394 276.925 60.327C277.618 58.0271 279.226 56.8269 281.691 56.8163C281.691 56.8163 281.696 56.8163 281.701 56.8163C283.526 56.8163 284.748 57.419 285.372 58.6245C285.722 59.296 285.891 60.3746 285.891 61.855V73.5133C285.891 74.0843 286.356 74.5496 286.928 74.5496H292.329C292.9 74.5496 293.365 74.0843 293.365 73.5133V61.855C293.365 60.7394 293.566 59.7877 293.963 58.9946C294.746 57.4983 296.159 56.7476 298.211 56.7476C299.983 56.7476 301.2 57.3291 301.856 58.487C302.205 59.1004 302.374 61.1782 302.374 62.1246V73.5133C302.374 74.0843 302.84 74.5496 303.411 74.5496H308.944C309.515 74.5496 309.981 74.0896 309.981 73.5186L310.029 58.8201C310.029 57.2023 309.944 55.9703 309.769 55.135L309.775 55.1138Z" fill="#1E5294"></path>
    <path d="M322.127 57.4455L314.62 57.4613C314.044 57.4613 313.626 56.9115 313.779 56.3563C314.144 55.0292 314.678 53.6334 315.16 52.9302C315.779 52.0261 316.673 51.2383 317.842 50.5721C318.678 50.091 319.831 49.7209 321.296 49.4565C322.761 49.1921 324.348 49.06 326.052 49.06C328.786 49.06 330.987 49.2186 332.648 49.5358C334.309 49.853 335.69 50.5139 336.795 51.5238C337.573 52.2217 338.187 53.2051 338.636 54.4846C339.086 55.7641 339.308 56.9802 339.308 58.1434V69.0403C339.308 70.2035 339.377 71.1129 339.52 71.7685C339.604 72.1492 339.742 72.5986 339.937 73.1009C340.16 73.6719 339.742 74.2852 339.133 74.2852H332.41C332.082 74.2852 331.781 74.1002 331.632 73.8094C331.426 73.4023 331.289 73.0797 331.209 72.8365C331.103 72.5034 330.998 71.98 330.897 71.2662C329.702 72.4611 328.511 73.3124 327.332 73.8199C325.718 74.502 323.84 74.8404 321.703 74.8404C318.863 74.8404 316.704 74.1583 315.234 72.7942C313.763 71.4301 313.023 69.7488 313.023 67.7555C313.023 65.8838 313.552 64.34 314.615 63.1345C315.678 61.929 317.635 61.0302 320.492 60.438C323.914 59.7243 326.136 59.2273 327.152 58.9418C328.168 58.6562 329.247 58.2808 330.384 57.8156C330.384 56.6524 330.151 55.8434 329.691 55.3782C329.226 54.9129 328.411 54.6803 327.247 54.6803C325.75 54.6803 324.629 54.9288 323.883 55.4258C323.417 55.7377 323.2 56.1607 322.952 56.8639C322.83 57.2128 322.502 57.4455 322.132 57.4455H322.127ZM330.379 62.5793C329.125 63.0446 327.813 63.457 326.454 63.8113C324.602 64.3241 323.428 64.8264 322.931 65.3234C322.423 65.8363 322.169 66.4179 322.169 67.0682C322.169 67.8137 322.417 68.4217 322.92 68.8923C323.438 69.3787 324.205 69.6166 325.221 69.6008C326.237 69.5849 327.194 69.2994 328.041 68.7918C328.876 68.2895 329.469 67.6815 329.823 66.9677C330.188 66.2328 330.373 65.2758 330.373 64.0968V62.5846L330.379 62.5793Z" fill="#1E5294"></path>
  </g>
  <defs>
    <linearGradient id="paint0_linear_20252_230" x1="10.8685" y1="71.0731" x2="72.1271" y2="71.0731" gradientUnits="userSpaceOnUse">
      <stop stop-color="#3AA1D5"></stop>
      <stop offset="0.6" stop-color="#0086C9"></stop>
      <stop offset="1" stop-color="#1F2774"></stop>
    </linearGradient>
    <linearGradient id="paint1_linear_20252_230" x1="10.8686" y1="61.1977" x2="72.1271" y2="61.1977" gradientUnits="userSpaceOnUse">
      <stop stop-color="#3AA1D5"></stop>
      <stop offset="0.6" stop-color="#0086C9"></stop>
      <stop offset="1" stop-color="#1F2774"></stop>
    </linearGradient>
    <clipPath id="clip0_20252_230">
      <rect width="369" height="103" fill="white"></rect>
    </clipPath>
  </defs>
</svg>
